<svg id="Layer_1" data-name="Layer 1" xmlns="http://www.w3.org/2000/svg" viewBox="0 0 1400 1400"><defs><style>.cls-1{fill:none;stroke:#000;stroke-miterlimit:10;stroke-width:12px;}</style></defs><title>pi-vector-seal</title><path d="M732.54,507.92H710c-26.78,0-53.58.51-80.35-.26-10.84-.32-13.18,3.41-12.87,13.55,2,66.36,3.42,132.74,5.17,199.11,1.4,52.79,3.88,105.57,4.25,158.37.3,42.84-8.09,84.17-31.54,121a116.68,116.68,0,0,1-21.85,25.72c-23,19.66-49.19,24.74-76.8,11-31.7-15.75-52.24-40.72-50.91-77.54.67-18.49,5.95-37.1,11.24-55a185.61,185.61,0,0,1,17.91-41.46c28.58-48.43,39.51-101.5,43.66-156.59,4.51-59.91,5.58-119.82.54-179.74-1.73-20.57-3-22-24-21.81-39.19.42-75.55,13.13-111.58,26.85C369.54,536.2,356.52,542.29,343,547c-7.83,2.75-18.65,8.59-23.5-.73-3-5.75.3-17,4.21-23.74,20.06-34.74,43.26-67.58,72.61-95,18.29-17.07,39.25-31.57,60.23-45.37,16.62-10.94,36.24-14.67,56.24-14.68q231.45-.07,462.9,0c32.09,0,54.17,18.95,60.12,50.5,6.64,35.26-3.28,65.26-29,79.3a87.37,87.37,0,0,1-37.54,10.08c-37.3,1.31-74.68.65-112,.37-7.21-.06-10.86,1.8-12.25,9.4-16.14,88.54-27.93,177.41-20.68,267.73,2.89,36,9.6,71.05,26.94,103.26,26.05,48.43,74.94,58,117.62,23.41,18.66-15.1,26-34.3,24.42-57.82-.31-4.63,2.1-9.43,3.26-14.16,5.17,1.6,11.61,1.76,15.3,5,20,17.68,25.33,41.38,24.05,66.71-2.56,50.35-28.84,87-70.76,111.73-52.68,31.11-107.79,38.06-163.37,6.63-28.89-16.34-46.24-42.7-57.95-73-13.94-36.07-16.54-74.32-19.29-112.23-6.57-90.49-3.11-181,3.59-271.33C729.74,551.86,731,530.54,732.54,507.92Z"/><circle class="cls-1" cx="700" cy="700" r="600"/><circle class="cls-1" cx="700" cy="700" r="475.47"/><path d="M1071,343.8a19.16,19.16,0,0,1-4.67-7.35,18.55,18.55,0,0,1-.86-7l6-.75a19.38,19.38,0,0,0,.65,5.38,11.28,11.28,0,0,0,2.89,5,8.75,8.75,0,0,0,5,2.85,5.58,5.58,0,0,0,4.82-1.66,7.17,7.17,0,0,0,1.73-2.47,5.32,5.32,0,0,0,.23-3,11.18,11.18,0,0,0-1.59-3.71,30.76,30.76,0,0,0-3.73-4.61l4-3.81a22.48,22.48,0,0,0,3.92,3.38,10,10,0,0,0,3.31,1.47,5.13,5.13,0,0,0,2.82-.15,6.59,6.59,0,0,0,2.33-1.45,5.29,5.29,0,0,0,1.83-4,6.56,6.56,0,0,0-2.07-4.29,9.19,9.19,0,0,0-3.89-2.5,18.91,18.91,0,0,0-4.77-.85l.69-6a24.63,24.63,0,0,1,6.73,1.51,15.67,15.67,0,0,1,5.74,3.92,19.55,19.55,0,0,1,3.29,4.48,12.37,12.37,0,0,1,1.41,4.56,9.76,9.76,0,0,1-.61,4.4,10.65,10.65,0,0,1-2.71,4,9,9,0,0,1-5.61,2.69,12.48,12.48,0,0,1-6.35-1.32l-.19.18a12.75,12.75,0,0,1,1.68,7,9.46,9.46,0,0,1-3.19,6.45,11,11,0,0,1-4.49,2.71,11.16,11.16,0,0,1-4.91.34,14.66,14.66,0,0,1-4.93-1.74A19.17,19.17,0,0,1,1071,343.8Z"/><path d="M1089.68,364.31a4.71,4.71,0,0,1-1.21-3.6,5.48,5.48,0,0,1,5.57-4.81,4.69,4.69,0,0,1,3.39,1.72,4.6,4.6,0,0,1,1.18,3.57A5.59,5.59,0,0,1,1093,366,4.59,4.59,0,0,1,1089.68,364.31Z"/><path d="M1099.82,375l4.88-3.78,5.72,7.36,21.67-16.84-4.71-6.07,3.73-2.9a34.94,34.94,0,0,0,4.44,3.41,24.52,24.52,0,0,0,4.18,2.12l3.46,4.46-28.1,21.83,5,6.48-4.88,3.79Z"/><path d="M1128.89,414.55l8.93-6-10.32-15.29,4.24-2.86,30.7-.76,5,7.45-20.85,14.07,2.94,4.36-4.84,3.27-2.94-4.36-8.93,6Zm7.64-18.38,6.13,9.08,7.84-5.29c1-.68,2.23-1.46,3.65-2.34s2.65-1.62,3.72-2.23l-.15-.22c-1.2.18-2.39.32-3.58.44l-3.72.37Z"/><path d="M1139.55,431l5.33-3.1,4.69,8.06,23.73-13.79-3.86-6.64,4.08-2.38a34.42,34.42,0,0,0,4,4,24.37,24.37,0,0,0,3.86,2.66l2.84,4.88L1153.4,442.5l4.13,7.09-5.34,3.1Z"/><path d="M1160.66,471a18.82,18.82,0,0,1-2.21-8.4,22.31,22.31,0,0,1,1.07-6.94l5.9,1a22.28,22.28,0,0,0-.9,5.21,10.94,10.94,0,0,0,1.24,5.54,8.17,8.17,0,0,0,4.46,4.27,8.93,8.93,0,0,0,10.55-5,7.75,7.75,0,0,0-.65-5.91,9.38,9.38,0,0,0-2-2.81,20.12,20.12,0,0,0-3.07-2.14l.45-4.26,19-8,9.9,20-5.71,2.82-7-14.12-9.44,3.72a14.4,14.4,0,0,1,2.06,1.87,10.49,10.49,0,0,1,1.62,2.46,16.11,16.11,0,0,1,1.55,4.91,11.36,11.36,0,0,1-.3,4.8,11.49,11.49,0,0,1-2.39,4.33,14.82,14.82,0,0,1-4.75,3.52,14.67,14.67,0,0,1-6,1.62,13.52,13.52,0,0,1-5.5-.9,13.79,13.79,0,0,1-4.58-3A16.5,16.5,0,0,1,1160.66,471Z"/><path d="M1174.28,500.72a14.41,14.41,0,0,1-1.21-6.54,17.29,17.29,0,0,1,1.31-5.59l5.81,2a9.11,9.11,0,0,0-1,3.63,8.19,8.19,0,0,0,.6,3.76,8.78,8.78,0,0,0,2.14,3.13,7.78,7.78,0,0,0,3.57,1.83,14.7,14.7,0,0,0,5.21.15,31,31,0,0,0,7.1-1.91,13.2,13.2,0,0,1-5-2.63,10.51,10.51,0,0,1-3-3.94,14.82,14.82,0,0,1-1.16-4.85,10.19,10.19,0,0,1,.75-4.47,11,11,0,0,1,2.78-3.85,16.52,16.52,0,0,1,4.94-3,14.4,14.4,0,0,1,5.65-1.2,13.05,13.05,0,0,1,5.05,1A12.2,12.2,0,0,1,1212,481a13.75,13.75,0,0,1,2.83,4.34,14.28,14.28,0,0,1,1.09,5.8,13.15,13.15,0,0,1-1.59,5.88,18.6,18.6,0,0,1-4.6,5.46,30.36,30.36,0,0,1-7.94,4.6,35.38,35.38,0,0,1-10.16,2.74,20.9,20.9,0,0,1-8-.61,14,14,0,0,1-5.8-3.28A15.33,15.33,0,0,1,1174.28,500.72Zm21.19-6.85A7.74,7.74,0,0,0,1198,497a11,11,0,0,0,4.82,1.95q4.88-2.65,6.36-5.58a6.57,6.57,0,0,0,.33-5.72,5.74,5.74,0,0,0-3.56-3.29,8.45,8.45,0,0,0-6.1.54c-2.31.95-3.81,2.2-4.52,3.75A6.33,6.33,0,0,0,1195.47,493.87Z"/><path d="M1183.47,521.35l4.17-1.4q5.37,2.76,9.85,5t8.13,3.56a31.33,31.33,0,0,0,6.56,1.77,11.12,11.12,0,0,0,5.15-.35,7.51,7.51,0,0,0,4.44-3.37,6.59,6.59,0,0,0,.19-5.47,7.6,7.6,0,0,0-2.72-3.76,21,21,0,0,0-4.29-2.46l2.63-5.33a24.06,24.06,0,0,1,6.41,4.11,16.88,16.88,0,0,1,4.82,11.92,11.38,11.38,0,0,1-4.11,8.56,13.79,13.79,0,0,1-4.67,2.58,14.4,14.4,0,0,1-5.71.65,30.81,30.81,0,0,1-6.52-1.27,68.36,68.36,0,0,1-7.24-2.65c-2.54-1.09-5.17-2.25-7.9-3.5.43,1,.9,2.09,1.41,3.26s.93,2.23,1.25,3.19l3.27,9.7-6.09,2.06Z"/><path d="M1197.49,569.23a14.31,14.31,0,0,1-.32-6,13.15,13.15,0,0,1,2.36-5.61,18.38,18.38,0,0,1,5.31-4.8,30.86,30.86,0,0,1,8.52-3.51A34.66,34.66,0,0,1,1223.8,548a21.16,21.16,0,0,1,7.79,1.71,14.22,14.22,0,0,1,5.27,4,15.08,15.08,0,0,1,2.85,5.63A14.24,14.24,0,0,1,1240,566a17.1,17.1,0,0,1-2,5.33l-5.48-2.76a8.56,8.56,0,0,0,1.44-3.4,8.42,8.42,0,0,0-.09-3.81,9.05,9.05,0,0,0-1.71-3.39,7.76,7.76,0,0,0-3.29-2.29,14.67,14.67,0,0,0-5.15-.84,30.68,30.68,0,0,0-7.29.94A13.66,13.66,0,0,1,1221,559a10.11,10.11,0,0,1,2.49,4.27,14.72,14.72,0,0,1,.5,5,10.06,10.06,0,0,1-1.32,4.36,10.89,10.89,0,0,1-3.27,3.45,16.76,16.76,0,0,1-5.29,2.31,14.77,14.77,0,0,1-5.76.44,13.16,13.16,0,0,1-4.88-1.63,12.61,12.61,0,0,1-3.74-3.33A13.32,13.32,0,0,1,1197.49,569.23Zm5.55-1.6a5.69,5.69,0,0,0,3.1,3.76,8.63,8.63,0,0,0,6.18.24c2.41-.64,4.06-1.66,5-3.08a6.33,6.33,0,0,0,.54-5.16,7.94,7.94,0,0,0-2-3.35,11.42,11.42,0,0,0-4.54-2.67c-3.5,1.34-5.88,2.88-7.13,4.64A6.44,6.44,0,0,0,1203,567.63Z"/><path d="M1204.64,600.46a18.67,18.67,0,0,1,.08-8.68,22.22,22.22,0,0,1,2.87-6.41l5.44,2.49a22.62,22.62,0,0,0-2.25,4.79,11,11,0,0,0-.27,5.67,8.18,8.18,0,0,0,3.17,5.3,7.82,7.82,0,0,0,12.44-7.93,9.13,9.13,0,0,0-1.2-3.25,19.92,19.92,0,0,0-2.4-2.88l1.57-4,20.47-2.71,4.26,21.92-6.25,1.21-3-15.47-10.09,1.09A14.91,14.91,0,0,1,1231,594a11,11,0,0,1,.91,2.8,16.32,16.32,0,0,1,.2,5.15,11.4,11.4,0,0,1-1.56,4.55,11.55,11.55,0,0,1-3.46,3.55,16.23,16.23,0,0,1-11.73,2.11,13.47,13.47,0,0,1-5.07-2.33,13.92,13.92,0,0,1-3.63-4.07A16.23,16.23,0,0,1,1204.64,600.46Z"/><path d="M1210.11,634.23a18.87,18.87,0,0,1,.63-8.68,18.45,18.45,0,0,1,3.46-6.13l5.27,3a19.16,19.16,0,0,0-2.68,4.71,11.34,11.34,0,0,0-.64,5.71,8.68,8.68,0,0,0,2.36,5.29,5.57,5.57,0,0,0,4.86,1.54,7.18,7.18,0,0,0,2.85-1,5.23,5.23,0,0,0,2-2.26,11.12,11.12,0,0,0,.93-3.92,30.13,30.13,0,0,0-.26-5.93l5.48-.69a22.26,22.26,0,0,0,1.13,5,9.73,9.73,0,0,0,1.79,3.15,5.2,5.2,0,0,0,2.34,1.56,6.62,6.62,0,0,0,2.74.22,5.25,5.25,0,0,0,3.87-2.15,6.53,6.53,0,0,0,.9-4.68,9.21,9.21,0,0,0-1.64-4.32,18.79,18.79,0,0,0-3.32-3.52l4.14-4.43a24.84,24.84,0,0,1,4.5,5.23,15.64,15.64,0,0,1,2.28,6.56,19.83,19.83,0,0,1,0,5.56,12.14,12.14,0,0,1-1.58,4.5,9.71,9.71,0,0,1-3.11,3.17,10.66,10.66,0,0,1-4.53,1.57,9.08,9.08,0,0,1-6.11-1.18,12.63,12.63,0,0,1-4.31-4.86l-.26,0a12.78,12.78,0,0,1-2.81,6.61,9.55,9.55,0,0,1-6.4,3.29,11.11,11.11,0,0,1-5.23-.5,11.24,11.24,0,0,1-4.14-2.66,14.81,14.81,0,0,1-2.93-4.33A19.2,19.2,0,0,1,1210.11,634.23Z"/><path d="M1213.34,668.44a18.74,18.74,0,0,1,1.24-8.59,22,22,0,0,1,3.69-6l5.06,3.19a23.14,23.14,0,0,0-2.87,4.44,10.94,10.94,0,0,0-1,5.59,8.21,8.21,0,0,0,2.44,5.68,7.82,7.82,0,0,0,13.38-6.22,9.27,9.27,0,0,0-.76-3.38,20.18,20.18,0,0,0-2-3.17l2.08-3.74,20.66,0,1.32,22.29-6.36.37-.93-15.73-10.15-.26a15,15,0,0,1,1.17,2.53,10.7,10.7,0,0,1,.53,2.9,16.11,16.11,0,0,1-.48,5.13,11.14,11.14,0,0,1-6,7.36,16.27,16.27,0,0,1-11.9.54,13.72,13.72,0,0,1-4.72-3,14,14,0,0,1-3.06-4.52A16.44,16.44,0,0,1,1213.34,668.44Z"/><path d="M1214.29,703.77a18,18,0,0,1,.9-5.68,14.08,14.08,0,0,1,2.39-4.44,11.26,11.26,0,0,1,3.63-2.93,9.87,9.87,0,0,1,4.67-1.05,9.71,9.71,0,0,1,3.58.65,10.81,10.81,0,0,1,2.91,1.69,14.12,14.12,0,0,1,2.34,2.42,17.84,17.84,0,0,1,1.82,2.87h.26a17.08,17.08,0,0,1,4.1-4.08,9.67,9.67,0,0,1,5.73-1.63,10.74,10.74,0,0,1,4.59,1,10.39,10.39,0,0,1,3.46,2.66,11.82,11.82,0,0,1,2.2,4,15.24,15.24,0,0,1,.75,5,14.74,14.74,0,0,1-.85,5.08,11.48,11.48,0,0,1-2.33,3.86,9.9,9.9,0,0,1-3.56,2.43,11.88,11.88,0,0,1-4.64.82,8.92,8.92,0,0,1-3-.51,12.55,12.55,0,0,1-2.62-1.3,14.34,14.34,0,0,1-2.22-1.82,17.66,17.66,0,0,1-1.72-2h-.27a21.45,21.45,0,0,1-1.82,2.75,12.37,12.37,0,0,1-2.35,2.28,11.41,11.41,0,0,1-3,1.55,10.71,10.71,0,0,1-3.75.56,10.12,10.12,0,0,1-4.49-1,11.07,11.07,0,0,1-3.59-2.89,13.28,13.28,0,0,1-2.37-4.48A18.92,18.92,0,0,1,1214.29,703.77Zm5.38.17a7.46,7.46,0,0,0,1.61,5,5.73,5.73,0,0,0,4.58,2,5.31,5.31,0,0,0,2.93-.77A8.09,8.09,0,0,0,1231,708a17.71,17.71,0,0,0,1.77-3.17c.53-1.22,1.09-2.53,1.67-3.93a13,13,0,0,0-3.4-3.27,7.9,7.9,0,0,0-4.39-1.32,6.21,6.21,0,0,0-5,2.2A8.22,8.22,0,0,0,1219.67,703.94Zm19,2.76a13.62,13.62,0,0,0,3.46,2.62,8.29,8.29,0,0,0,3.74.91,6.57,6.57,0,0,0,4.57-1.57,5.76,5.76,0,0,0,1.84-4.55,5.87,5.87,0,0,0-1.45-4.09,5.41,5.41,0,0,0-4.22-1.67,5.57,5.57,0,0,0-2.76.64,6.66,6.66,0,0,0-2.08,1.79,15.61,15.61,0,0,0-1.66,2.65A33.38,33.38,0,0,0,1238.63,706.7Z"/><path d="M1213.1,735.42A14.4,14.4,0,0,1,1215,729a17.06,17.06,0,0,1,3.68-4.4l4.29,4.4a9.16,9.16,0,0,0-2.48,2.81,8.41,8.41,0,0,0-1.16,3.64,8.92,8.92,0,0,0,.52,3.75,7.61,7.61,0,0,0,2.36,3.24,15,15,0,0,0,4.59,2.48,31.17,31.17,0,0,0,7.2,1.48,13.21,13.21,0,0,1-3.25-4.58,10.56,10.56,0,0,1-.93-4.88,14.69,14.69,0,0,1,1.15-4.85,10.11,10.11,0,0,1,2.67-3.66,10.89,10.89,0,0,1,4.21-2.19,16.73,16.73,0,0,1,5.77-.46,14.63,14.63,0,0,1,5.58,1.46,13.12,13.12,0,0,1,4.08,3.13,12.2,12.2,0,0,1,2.42,4.36,13.83,13.83,0,0,1,.57,5.15,14.06,14.06,0,0,1-1.64,5.67,13.05,13.05,0,0,1-4,4.54,18.69,18.69,0,0,1-6.56,2.81,30.21,30.21,0,0,1-9.16.54,35.35,35.35,0,0,1-10.31-2.11,21,21,0,0,1-6.84-4.12,14.08,14.08,0,0,1-3.71-5.54A15.33,15.33,0,0,1,1213.1,735.42Zm22,3.39a7.79,7.79,0,0,0,.86,3.92,11.05,11.05,0,0,0,3.44,3.91q5.53-.2,8.19-2.13a6.54,6.54,0,0,0,2.86-5,5.73,5.73,0,0,0-1.7-4.54,8.47,8.47,0,0,0-5.7-2.26q-3.72-.27-5.72,1.32A6.39,6.39,0,0,0,1235.1,738.81Z"/><path d="M1210.85,766.44a94.45,94.45,0,0,1,10,2.4,58.73,58.73,0,0,1,8.46,3.28,50.35,50.35,0,0,1,7.61,4.55,71.16,71.16,0,0,1,7.38,6.21l2.76-19.57,6.3.89-3.9,27.76-4.55-.64a59.72,59.72,0,0,0-7.73-7.09,44,44,0,0,0-7.82-4.71,51.08,51.08,0,0,0-8.81-3.13q-4.73-1.23-10.74-2.34Z"/><path d="M1203.88,803.33a14.39,14.39,0,0,1,2.69-6.08,16.73,16.73,0,0,1,4.23-3.88l3.66,4.92a9.4,9.4,0,0,0-2.83,2.47,8.29,8.29,0,0,0-1.62,3.45,8.81,8.81,0,0,0,0,3.79,7.72,7.72,0,0,0,1.91,3.52,15,15,0,0,0,4.22,3.06,31.35,31.35,0,0,0,6.94,2.43,13.19,13.19,0,0,1-2.61-5,10.33,10.33,0,0,1-.27-4.95,14.49,14.49,0,0,1,1.78-4.66,10,10,0,0,1,3.13-3.27,10.81,10.81,0,0,1,4.46-1.61,16.58,16.58,0,0,1,5.78.3,14.73,14.73,0,0,1,5.34,2.19,13.26,13.26,0,0,1,3.63,3.65,12.17,12.17,0,0,1,1.81,4.64,13.46,13.46,0,0,1-.11,5.17,14.19,14.19,0,0,1-2.37,5.41,13.13,13.13,0,0,1-4.62,4,18.6,18.6,0,0,1-6.88,1.92,30.5,30.5,0,0,1-9.15-.68,35.34,35.34,0,0,1-9.94-3.45,21.31,21.31,0,0,1-6.23-5,14,14,0,0,1-2.94-6A15.22,15.22,0,0,1,1203.88,803.33Zm21.36,6.28a7.68,7.68,0,0,0,.34,4,11,11,0,0,0,2.88,4.33q5.52.55,8.4-1a6.58,6.58,0,0,0,3.5-4.54,5.71,5.71,0,0,0-1.09-4.72,8.43,8.43,0,0,0-5.34-3q-3.66-.76-5.85.55A6.36,6.36,0,0,0,1225.24,809.61Z"/><path d="M1195.51,838.1a19.08,19.08,0,0,1,4-7.76A18.57,18.57,0,0,1,1205,826l3.7,4.79a19.65,19.65,0,0,0-4.3,3.29,11.37,11.37,0,0,0-2.8,5,8.74,8.74,0,0,0,.12,5.79,5.54,5.54,0,0,0,3.88,3.3,7.07,7.07,0,0,0,3,.23,5.14,5.14,0,0,0,2.69-1.33,10.9,10.9,0,0,0,2.38-3.25,29.86,29.86,0,0,0,2.07-5.56l5.31,1.49a22.59,22.59,0,0,0-.91,5.1,9.76,9.76,0,0,0,.42,3.59,5.23,5.23,0,0,0,1.56,2.35,6.52,6.52,0,0,0,2.44,1.26,5.29,5.29,0,0,0,4.4-.47,6.54,6.54,0,0,0,2.64-4,9.33,9.33,0,0,0,.17-4.62,19.11,19.11,0,0,0-1.7-4.53l5.54-2.48a24.59,24.59,0,0,1,2.11,6.56,15.6,15.6,0,0,1-.44,6.94,19.68,19.68,0,0,1-2.18,5.11,12.25,12.25,0,0,1-3.21,3.54,9.76,9.76,0,0,1-4.09,1.71,10.7,10.7,0,0,1-4.79-.31,9,9,0,0,1-5.16-3.46,12.59,12.59,0,0,1-2.1-6.15l-.26-.07a12.62,12.62,0,0,1-5.15,5,9.44,9.44,0,0,1-7.17.55,11,11,0,0,1-4.62-2.48,11.27,11.27,0,0,1-2.79-4.06,14.64,14.64,0,0,1-1-5.13A19.24,19.24,0,0,1,1195.51,838.1Z"/><path d="M1190.4,858.58l4.15,1.47q2.52,5.48,4.69,10t4.2,7.82a31.12,31.12,0,0,0,4.06,5.44,11.09,11.09,0,0,0,4.27,2.9,7.46,7.46,0,0,0,5.57.09,6.59,6.59,0,0,0,3.54-4.18,7.66,7.66,0,0,0,.17-4.64,20.86,20.86,0,0,0-1.86-4.59l5.37-2.56a24.24,24.24,0,0,1,2.5,7.19,15.11,15.11,0,0,1-.88,7.52,15.37,15.37,0,0,1-2.68,4.83,11.87,11.87,0,0,1-3.83,3,11.63,11.63,0,0,1-4.69,1.16,14,14,0,0,1-5.27-.85,14.36,14.36,0,0,1-4.89-3,30.62,30.62,0,0,1-4.35-5,68.41,68.41,0,0,1-4.06-6.56q-2-3.63-4.05-7.63c-.29,1.06-.59,2.21-.91,3.44s-.65,2.33-1,3.28l-3.42,9.65L1181,885.2Z"/><path d="M1172.8,902.75a19.13,19.13,0,0,1,5-7.16,18.75,18.75,0,0,1,6.1-3.53l3,5.24a19.55,19.55,0,0,0-4.7,2.7,11.25,11.25,0,0,0-3.45,4.59,8.75,8.75,0,0,0-.66,5.76,5.59,5.59,0,0,0,3.41,3.79,7.29,7.29,0,0,0,3,.63,5.28,5.28,0,0,0,2.84-1,10.86,10.86,0,0,0,2.79-2.91,29.09,29.09,0,0,0,2.79-5.23l5.07,2.18a22.15,22.15,0,0,0-1.59,4.93,10.09,10.09,0,0,0-.06,3.62,5.23,5.23,0,0,0,1.23,2.53,6.45,6.45,0,0,0,2.25,1.58,5.24,5.24,0,0,0,4.42.12,6.53,6.53,0,0,0,3.15-3.58,9.31,9.31,0,0,0,.79-4.56,19.41,19.41,0,0,0-1.08-4.71l5.81-1.72a24.76,24.76,0,0,1,1.23,6.79,15.76,15.76,0,0,1-1.36,6.81,20,20,0,0,1-2.85,4.78,12.13,12.13,0,0,1-3.65,3.07,9.68,9.68,0,0,1-4.29,1.16,10.8,10.8,0,0,1-4.7-.95,9.05,9.05,0,0,1-4.66-4.12,12.7,12.7,0,0,1-1.26-6.37l-.24-.11a12.64,12.64,0,0,1-5.77,4.27,9.48,9.48,0,0,1-7.19-.41,10.81,10.81,0,0,1-6.46-7.47,14.55,14.55,0,0,1-.33-5.22A19.44,19.44,0,0,1,1172.8,902.75Z"/><path d="M1157.75,934.78a18.06,18.06,0,0,1,3.35-4.67,13.82,13.82,0,0,1,4.14-2.89,11.13,11.13,0,0,1,4.56-1,10,10,0,0,1,4.64,1.16,9.76,9.76,0,0,1,2.9,2.19,10.84,10.84,0,0,1,1.84,2.83,14.63,14.63,0,0,1,1,3.21,19.07,19.07,0,0,1,.33,3.38l.23.12a17.09,17.09,0,0,1,5.5-1.8,9.62,9.62,0,0,1,5.84,1.12,10.61,10.61,0,0,1,3.66,2.95,10.29,10.29,0,0,1,1.9,3.92,11.9,11.9,0,0,1,.15,4.59,15.56,15.56,0,0,1-1.59,4.83,15.14,15.14,0,0,1-3,4.15,11.62,11.62,0,0,1-3.81,2.4,10,10,0,0,1-4.28.57,12.15,12.15,0,0,1-4.51-1.36,8.83,8.83,0,0,1-2.43-1.8,12,12,0,0,1-1.76-2.34,13.93,13.93,0,0,1-1.16-2.62,18.17,18.17,0,0,1-.63-2.58l-.24-.12a20.12,20.12,0,0,1-2.86,1.63,12,12,0,0,1-3.12,1,11.71,11.71,0,0,1-3.35.06,11,11,0,0,1-3.6-1.19,10,10,0,0,1-3.54-3,11.05,11.05,0,0,1-1.91-4.19,13.35,13.35,0,0,1-.09-5.06A18.49,18.49,0,0,1,1157.75,934.78Zm4.73,2.57a7.42,7.42,0,0,0-.81,5.16,5.72,5.72,0,0,0,3.21,3.82,5.32,5.32,0,0,0,3,.64,8.2,8.2,0,0,0,2.9-.91,17.35,17.35,0,0,0,3-2c1-.85,2.11-1.77,3.26-2.76a13,13,0,0,0-1.55-4.45,7.92,7.92,0,0,0-3.33-3.15,6.2,6.2,0,0,0-5.49-.3A8.16,8.16,0,0,0,1162.48,937.35Zm15.68,11a13.64,13.64,0,0,0,1.91,3.9,8.37,8.37,0,0,0,2.93,2.49,6.61,6.61,0,0,0,4.79.66,5.83,5.83,0,0,0,3.69-3.24,5.9,5.9,0,0,0,.55-4.3,6.21,6.21,0,0,0-5.78-4.06,6.6,6.6,0,0,0-2.66.66,15.92,15.92,0,0,0-2.67,1.61A33.89,33.89,0,0,0,1178.16,948.35Z"/><path d="M1140.33,967.5l9.23,5.55,9.51-15.81,4.39,2.64,13.64,27.51-4.63,7.71-21.55-13-2.71,4.5-5-3,2.71-4.5-9.23-5.55Zm19.89-.83-5.65,9.39,8.1,4.87c1,.64,2.27,1.41,3.67,2.32s2.59,1.72,3.59,2.43l.14-.22c-.67-1-1.31-2-1.91-3.07l-1.9-3.21Z"/><path d="M1121.76,994.49a14.37,14.37,0,0,1,4.33-4.11,13.17,13.17,0,0,1,5.81-1.84,18.62,18.62,0,0,1,7.1,1,30.59,30.59,0,0,1,8.18,4.22,34.56,34.56,0,0,1,7.78,7.1,21.12,21.12,0,0,1,3.74,7,14.24,14.24,0,0,1,.35,6.61,15,15,0,0,1-2.44,5.82,14.51,14.51,0,0,1-4.87,4.57,17.47,17.47,0,0,1-5.39,1.89l-1.45-6a8.59,8.59,0,0,0,3.53-1.11,8.4,8.4,0,0,0,2.85-2.53,8.91,8.91,0,0,0,1.47-3.5,7.75,7.75,0,0,0-.38-4,14.89,14.89,0,0,0-2.69-4.47,31.09,31.09,0,0,0-5.43-4.94,13.88,13.88,0,0,1,.5,5.59,10.18,10.18,0,0,1-1.64,4.66,15.19,15.19,0,0,1-3.48,3.61,10.15,10.15,0,0,1-4.18,1.81,10.85,10.85,0,0,1-4.74-.26,16.67,16.67,0,0,1-5.2-2.53,15.07,15.07,0,0,1-4.06-4.11,13.08,13.08,0,0,1-1.91-4.78,12.41,12.41,0,0,1,.12-5A13.1,13.1,0,0,1,1121.76,994.49Zm4.81,3.19a5.72,5.72,0,0,0-.86,4.8,8.68,8.68,0,0,0,3.82,4.86c2,1.43,3.9,2,5.55,1.79a6.31,6.31,0,0,0,4.29-2.94,7.88,7.88,0,0,0,1.25-3.69,11.31,11.31,0,0,0-.91-5.19q-4.92-2.7-8.14-2.43A6.43,6.43,0,0,0,1126.57,997.68Z"/><path d="M1111.51,1010.24,1115,1013q.57,6,1.14,11c.38,3.3.85,6.22,1.39,8.76a31.57,31.57,0,0,0,2,6.48,11.12,11.12,0,0,0,3.08,4.14,7.47,7.47,0,0,0,5.23,1.92,6.55,6.55,0,0,0,4.71-2.78,7.65,7.65,0,0,0,1.7-4.33,20.67,20.67,0,0,0-.25-4.94l5.91-.66a24.29,24.29,0,0,1,0,7.62,15.16,15.16,0,0,1-3.31,6.81,15.33,15.33,0,0,1-4.12,3.68,11.4,11.4,0,0,1-9.42,1.16,14,14,0,0,1-4.7-2.54,14.13,14.13,0,0,1-3.62-4.46,31.25,31.25,0,0,1-2.46-6.17,69,69,0,0,1-1.68-7.52q-.67-4.08-1.32-8.55l-2,3c-.71,1.06-1.38,2-2,2.77l-6.4,8-5-4Z"/><path d="M1078.8,1047.89a14.34,14.34,0,0,1,4.85-3.49,13.11,13.11,0,0,1,6-1.06,18.83,18.83,0,0,1,6.92,1.88,30.75,30.75,0,0,1,7.55,5.27,34.76,34.76,0,0,1,6.77,8.07,21.27,21.27,0,0,1,2.77,7.47,14.34,14.34,0,0,1-.52,6.6,15,15,0,0,1-3.2,5.44,14.45,14.45,0,0,1-5.43,3.89,17.12,17.12,0,0,1-5.6,1.15l-.64-6.1a8.49,8.49,0,0,0,3.64-.63,8.24,8.24,0,0,0,3.16-2.14A8.94,8.94,0,0,0,1107,1071a7.76,7.76,0,0,0,.14-4,14.75,14.75,0,0,0-2.06-4.79,31.56,31.56,0,0,0-4.74-5.62,13.7,13.7,0,0,1-.24,5.61,10.13,10.13,0,0,1-2.24,4.4,15.17,15.17,0,0,1-3.93,3.12,10.12,10.12,0,0,1-4.39,1.24,10.81,10.81,0,0,1-4.66-.89,16.43,16.43,0,0,1-4.81-3.2,14.62,14.62,0,0,1-3.48-4.61,13.19,13.19,0,0,1-1.27-5,12.76,12.76,0,0,1,.78-4.94A13.36,13.36,0,0,1,1078.8,1047.89Zm4.36,3.8a5.72,5.72,0,0,0-1.5,4.65,8.67,8.67,0,0,0,3.14,5.32q2.76,2.52,5.27,2.51a6.3,6.3,0,0,0,4.64-2.34,7.89,7.89,0,0,0,1.73-3.5,11.39,11.39,0,0,0-.21-5.26c-3-2.22-5.6-3.39-7.75-3.49A6.42,6.42,0,0,0,1083.16,1051.69Z"/><path d="M1054.19,1074l7.45,7.77L1075,1069l3.54,3.7,6,30.12-6.5,6.23-17.4-18.16-3.79,3.63-4-4.22,3.79-3.63-7.45-7.78Zm19.41,4.41-7.92,7.58,6.54,6.83q1.27,1.32,2.93,3.2c1.1,1.24,2,2.34,2.83,3.28l.19-.18c-.38-1.15-.72-2.3-1-3.46s-.64-2.35-1-3.59Z"/><path d="M1031,1093.71a17.92,17.92,0,0,1,14.66-4.59l.36,6.05a19.35,19.35,0,0,0-5.41.29,11.47,11.47,0,0,0-5.15,2.56,8.72,8.72,0,0,0-3.17,4.85,5.59,5.59,0,0,0,1.34,4.92,7.26,7.26,0,0,0,2.35,1.88,5.2,5.2,0,0,0,3,.42,11,11,0,0,0,3.8-1.34,29.85,29.85,0,0,0,4.85-3.42l3.54,4.22a22.14,22.14,0,0,0-3.63,3.69,9.77,9.77,0,0,0-1.68,3.21,5.11,5.11,0,0,0,0,2.82,6.71,6.71,0,0,0,1.3,2.42,5.26,5.26,0,0,0,3.9,2.09,6.58,6.58,0,0,0,4.42-1.78,9.27,9.27,0,0,0,2.75-3.72,19.49,19.49,0,0,0,1.16-4.7l6,1.08a24.7,24.7,0,0,1-2,6.61,15.72,15.72,0,0,1-4.28,5.47,19.62,19.62,0,0,1-4.69,3,12.23,12.23,0,0,1-4.64,1.11,9.79,9.79,0,0,1-4.35-.89,10.68,10.68,0,0,1-3.77-3,9.09,9.09,0,0,1-2.32-5.78A12.61,12.61,0,0,1,1041,1115l-.17-.2a12.79,12.79,0,0,1-7.07,1.22,9.53,9.53,0,0,1-6.24-3.6,11,11,0,0,1-2.41-4.66,11.19,11.19,0,0,1,0-4.92,14.5,14.5,0,0,1,2.05-4.81A19.2,19.2,0,0,1,1031,1093.71Z"/><path d="M1004,1114.91a18.91,18.91,0,0,1,7.9-3.66,18.45,18.45,0,0,1,7,.06l-.05,6a19.2,19.2,0,0,0-5.41-.07,11.38,11.38,0,0,0-5.3,2.21,8.75,8.75,0,0,0-3.49,4.63,5.57,5.57,0,0,0,1,5,7,7,0,0,0,2.22,2,5.18,5.18,0,0,0,2.93.62,10.93,10.93,0,0,0,3.88-1.09,28.57,28.57,0,0,0,5.06-3.09l3.26,4.45a23,23,0,0,0-3.87,3.44,9.9,9.9,0,0,0-1.89,3.09,5.17,5.17,0,0,0-.22,2.81,6.44,6.44,0,0,0,1.14,2.5,5.22,5.22,0,0,0,3.74,2.35,6.56,6.56,0,0,0,4.53-1.49,9.14,9.14,0,0,0,3-3.53,18.74,18.74,0,0,0,1.47-4.61l5.88,1.48a24.44,24.44,0,0,1-2.39,6.46,15.64,15.64,0,0,1-4.63,5.18,20,20,0,0,1-4.88,2.68,12.29,12.29,0,0,1-4.7.79A9.64,9.64,0,0,1,1016,1152a10.58,10.58,0,0,1-3.57-3.21,9,9,0,0,1-1.93-5.91,12.68,12.68,0,0,1,2.15-6.13l-.15-.21a12.81,12.81,0,0,1-7.14.75,9.47,9.47,0,0,1-6-4,11,11,0,0,1-2.1-4.81,11.19,11.19,0,0,1,.32-4.91,14.76,14.76,0,0,1,2.36-4.66A19.54,19.54,0,0,1,1004,1114.91Z"/><path d="M974.77,1134.88a18,18,0,0,1,5.26-2.31,14,14,0,0,1,5-.4,11.39,11.39,0,0,1,4.42,1.47,10,10,0,0,1,3.41,3.36,9.65,9.65,0,0,1,1.39,3.36,11.19,11.19,0,0,1,.15,3.36,14.33,14.33,0,0,1-.76,3.28,18,18,0,0,1-1.43,3.08l.14.23a16.87,16.87,0,0,1,5.65,1.24,9.69,9.69,0,0,1,4.47,3.93,10.77,10.77,0,0,1,1.65,4.39,10.29,10.29,0,0,1-.36,4.35,11.66,11.66,0,0,1-2.19,4,15.57,15.57,0,0,1-3.82,3.35,14.89,14.89,0,0,1-4.74,2,11.26,11.26,0,0,1-4.5.13,9.92,9.92,0,0,1-4-1.68,12,12,0,0,1-3.19-3.45,9,9,0,0,1-1.19-2.79,12.51,12.51,0,0,1-.32-2.9,13.71,13.71,0,0,1,.33-2.86,18.68,18.68,0,0,1,.76-2.54l-.14-.22a20.1,20.1,0,0,1-3.29,0,11.86,11.86,0,0,1-3.19-.74,11.33,11.33,0,0,1-2.92-1.65,11.19,11.19,0,0,1-2.5-2.85,10,10,0,0,1-1.54-4.34,10.87,10.87,0,0,1,.48-4.58,12.9,12.9,0,0,1,2.49-4.41A18.69,18.69,0,0,1,974.77,1134.88Zm2.77,4.62a7.42,7.42,0,0,0-3.31,4,5.7,5.7,0,0,0,.83,4.92,5.25,5.25,0,0,0,2.23,2,8.09,8.09,0,0,0,3,.69,18,18,0,0,0,3.62-.24c1.31-.21,2.72-.45,4.2-.72a12.68,12.68,0,0,0,.92-4.62,7.83,7.83,0,0,0-1.27-4.4,6.18,6.18,0,0,0-4.57-3A8.19,8.19,0,0,0,977.54,1139.5Zm7.94,17.44a13.17,13.17,0,0,0-.33,4.33,8.25,8.25,0,0,0,1.25,3.63,6.6,6.6,0,0,0,3.8,3A5.78,5.78,0,0,0,995,1167a5.86,5.86,0,0,0,2.65-3.42,5.38,5.38,0,0,0-.88-4.46,5.55,5.55,0,0,0-2-2,6.77,6.77,0,0,0-2.63-.78,15.72,15.72,0,0,0-3.13,0A32.36,32.36,0,0,0,985.48,1156.94Z"/><path d="M946.21,1151.7a19.05,19.05,0,0,1,8.32-2.58,18.78,18.78,0,0,1,7,1l-.85,6a19.15,19.15,0,0,0-5.36-.79,11.22,11.22,0,0,0-5.55,1.48,8.68,8.68,0,0,0-4.07,4.11A5.56,5.56,0,0,0,946,1166a7,7,0,0,0,1.93,2.32,5.23,5.23,0,0,0,2.82,1,10.91,10.91,0,0,0,4-.56,28.88,28.88,0,0,0,5.43-2.39l2.63,4.85a23.33,23.33,0,0,0-4.29,2.89,10,10,0,0,0-2.29,2.81,5.26,5.26,0,0,0-.59,2.76,6.55,6.55,0,0,0,.79,2.63,5.23,5.23,0,0,0,3.4,2.82,6.49,6.49,0,0,0,4.69-.86,9.22,9.22,0,0,0,3.43-3.1,19,19,0,0,0,2.07-4.37l5.63,2.24a24.24,24.24,0,0,1-3.23,6.09,15.7,15.7,0,0,1-5.28,4.52,19.79,19.79,0,0,1-5.19,2,12.11,12.11,0,0,1-4.77.16,9.72,9.72,0,0,1-4.09-1.74,10.85,10.85,0,0,1-3.1-3.65,9,9,0,0,1-1.12-6.12,12.61,12.61,0,0,1,2.95-5.79l-.13-.23a12.72,12.72,0,0,1-7.17-.21,9.5,9.5,0,0,1-5.39-4.77,11.08,11.08,0,0,1-1.44-5,11.3,11.3,0,0,1,1-4.82,14.44,14.44,0,0,1,3-4.3A19.1,19.1,0,0,1,946.21,1151.7Z"/><path d="M928,1162.28l1.84,4q-2.19,5.63-3.9,10.31t-2.69,8.46a31.13,31.13,0,0,0-1.08,6.71,11.06,11.06,0,0,0,.89,5.08,7.53,7.53,0,0,0,3.81,4.07,6.6,6.6,0,0,0,5.46-.38,7.6,7.6,0,0,0,3.46-3.1,20.57,20.57,0,0,0,2-4.53l5.57,2.07a24.17,24.17,0,0,1-3.41,6.8,15.08,15.08,0,0,1-6,4.6,15.34,15.34,0,0,1-5.34,1.44,11.42,11.42,0,0,1-8.94-3.19,14,14,0,0,1-3.05-4.38,14.25,14.25,0,0,1-1.24-5.61,31.09,31.09,0,0,1,.57-6.62,68.63,68.63,0,0,1,1.88-7.47c.82-2.64,1.7-5.38,2.66-8.23l-3.1,1.75c-1.11.63-2.12,1.15-3,1.57L905,1179.9l-2.69-5.84Z"/><path d="M888.69,1179.46a93.4,93.4,0,0,1,2.7,9.9,58.32,58.32,0,0,1,1.21,9,50.66,50.66,0,0,1-.32,8.86,70.29,70.29,0,0,1-1.89,9.46l18.48-7,2.26,5.95-26.21,10-1.63-4.3a59.46,59.46,0,0,0,2.49-10.18,43.93,43.93,0,0,0,.36-9.13,50.83,50.83,0,0,0-1.51-9.23q-1.2-4.74-3.12-10.54Z"/><path d="M853,1191.13a14.39,14.39,0,0,1,6.62-.58,16.8,16.8,0,0,1,5.44,1.84l-2.56,5.58a9.28,9.28,0,0,0-3.51-1.29,8.26,8.26,0,0,0-3.81.23,9,9,0,0,0-3.32,1.84,7.63,7.63,0,0,0-2.16,3.37,14.76,14.76,0,0,0-.66,5.18,31.71,31.71,0,0,0,1.22,7.25,13.3,13.3,0,0,1,3.1-4.69,10.45,10.45,0,0,1,4.21-2.62,14.55,14.55,0,0,1,4.94-.69,10.2,10.2,0,0,1,4.38,1.17,11.05,11.05,0,0,1,3.56,3.14,16.58,16.58,0,0,1,2.52,5.2,14.71,14.71,0,0,1,.65,5.74,13.09,13.09,0,0,1-1.45,4.94,12,12,0,0,1-3.19,3.82,13.6,13.6,0,0,1-4.59,2.4,14.09,14.09,0,0,1-5.88.52,13.05,13.05,0,0,1-5.7-2.14,18.69,18.69,0,0,1-5-5.1,30.22,30.22,0,0,1-3.81-8.34,35.32,35.32,0,0,1-1.76-10.38,21.06,21.06,0,0,1,1.37-7.87,14,14,0,0,1,3.83-5.46A15.3,15.3,0,0,1,853,1191.13Zm4.78,21.74a7.83,7.83,0,0,0-3.34,2.22,11,11,0,0,0-2.4,4.61q2.17,5.1,4.94,6.87a6.57,6.57,0,0,0,5.66.88,5.75,5.75,0,0,0,3.62-3.23,8.48,8.48,0,0,0,.05-6.13q-1.1-3.57-3.3-4.86A6.39,6.39,0,0,0,857.81,1212.87Z"/><path d="M818.44,1200.55a18.9,18.9,0,0,1,8.67-.24,22.29,22.29,0,0,1,6.52,2.63l-2.29,5.52a22.41,22.41,0,0,0-4.86-2.06,10.89,10.89,0,0,0-5.68-.06,8.21,8.21,0,0,0-5.18,3.37,7.81,7.81,0,0,0,8.4,12.13,9.15,9.15,0,0,0,3.19-1.32A20.41,20.41,0,0,0,830,1218l4,1.41,3.47,20.36-21.74,5.08-1.44-6.2,15.34-3.59-1.47-10a14.68,14.68,0,0,1-2.29,1.58,10.81,10.81,0,0,1-2.77,1,16,16,0,0,1-5.13.39,11.17,11.17,0,0,1-8.28-4.71,16.19,16.19,0,0,1-2.55-11.64,13.51,13.51,0,0,1,2.13-5.15,14.1,14.1,0,0,1,3.94-3.79A16.37,16.37,0,0,1,818.44,1200.55Z"/><path d="M783.84,1207.46a11.92,11.92,0,0,1,11.15,3.86q4.66,4.92,6.39,15.42t-1.15,16.46a12.62,12.62,0,0,1-20.48,3.33q-4.65-4.76-6.36-15.19t1.13-16.65A11.89,11.89,0,0,1,783.84,1207.46Zm1,5.83a5.12,5.12,0,0,0-2.62,1.27,6.44,6.44,0,0,0-1.73,3,18.93,18.93,0,0,0-.63,5.1,45,45,0,0,0,.7,7.47,44.08,44.08,0,0,0,1.71,7.2,18,18,0,0,0,2.21,4.53,6.06,6.06,0,0,0,2.59,2.2,5.44,5.44,0,0,0,2.88.3,5.52,5.52,0,0,0,2.63-1.2,6.07,6.07,0,0,0,1.75-2.92,17.6,17.6,0,0,0,.64-5,42.41,42.41,0,0,0-.68-7.38,43.58,43.58,0,0,0-1.73-7.3,18.8,18.8,0,0,0-2.22-4.62,6.41,6.41,0,0,0-2.61-2.34A5.13,5.13,0,0,0,784.8,1213.29Z"/><path d="M764.18,1211.3l.42,4.38q-3.9,4.6-7.06,8.47t-5.31,7.11a31.29,31.29,0,0,0-3.22,6,11.28,11.28,0,0,0-.83,5.1,7.58,7.58,0,0,0,2.28,5.09,6.57,6.57,0,0,0,5.28,1.43,7.57,7.57,0,0,0,4.28-1.8,20.86,20.86,0,0,0,3.38-3.62l4.59,3.78a24.29,24.29,0,0,1-5.46,5.31,17,17,0,0,1-12.71,2,11.7,11.7,0,0,1-4.36-2.18,11.85,11.85,0,0,1-3-3.76,13.92,13.92,0,0,1-1.45-5.14,14.07,14.07,0,0,1,.67-5.7,30.5,30.5,0,0,1,2.71-6.07,68.49,68.49,0,0,1,4.22-6.45q2.46-3.33,5.21-6.9c-1.08.19-2.25.4-3.5.64s-2.38.39-3.39.49l-10.19,1-.62-6.41Z"/><path d="M715.58,1214.07a18.28,18.28,0,0,1,5.7.68,14.05,14.05,0,0,1,4.54,2.23,11.09,11.09,0,0,1,3.06,3.52,10.06,10.06,0,0,1,1.22,4.63,9.85,9.85,0,0,1-.51,3.59,10.61,10.61,0,0,1-1.59,3,14.08,14.08,0,0,1-2.32,2.44,19,19,0,0,1-2.8,1.92v.27a16.69,16.69,0,0,1,4.22,3.94,9.6,9.6,0,0,1,1.85,5.66,10.76,10.76,0,0,1-.81,4.62,10.38,10.38,0,0,1-2.53,3.56,11.65,11.65,0,0,1-3.93,2.35,15.53,15.53,0,0,1-5,.94,14.59,14.59,0,0,1-5.11-.67,11.17,11.17,0,0,1-3.94-2.18,9.83,9.83,0,0,1-2.57-3.46,12.08,12.08,0,0,1-1-4.61,9,9,0,0,1,.4-3,12.08,12.08,0,0,1,1.2-2.66,13.42,13.42,0,0,1,1.74-2.29,17.59,17.59,0,0,1,2-1.8v-.26a21.35,21.35,0,0,1-2.81-1.72,12.11,12.11,0,0,1-2.37-2.26,11.23,11.23,0,0,1-1.66-2.91,11.09,11.09,0,0,1-.71-3.72,10.14,10.14,0,0,1,.88-4.53,11.08,11.08,0,0,1,2.75-3.69,13.18,13.18,0,0,1,4.39-2.53A18.55,18.55,0,0,1,715.58,1214.07Zm0,5.38a7.39,7.39,0,0,0-4.9,1.8,5.68,5.68,0,0,0-1.8,4.65,5.18,5.18,0,0,0,.88,2.89,7.9,7.9,0,0,0,2.19,2.11,18.12,18.12,0,0,0,3.24,1.64c1.24.49,2.57,1,4,1.52a12.92,12.92,0,0,0,3.14-3.51,7.86,7.86,0,0,0,1.15-4.44,6.21,6.21,0,0,0-2.38-4.95A8.25,8.25,0,0,0,715.61,1219.45Zm-2.05,19a13.74,13.74,0,0,0-2.49,3.56,8.31,8.31,0,0,0-.77,3.77,6.67,6.67,0,0,0,1.74,4.51,5.84,5.84,0,0,0,4.62,1.67,5.92,5.92,0,0,0,4-1.6,5.45,5.45,0,0,0,1.51-4.29,5.54,5.54,0,0,0-.74-2.73,6.49,6.49,0,0,0-1.87-2,16.1,16.1,0,0,0-2.71-1.57A33.3,33.3,0,0,0,713.56,1238.5Z"/><path d="M681.27,1214a18.29,18.29,0,0,1,5.64,1.06,13.8,13.8,0,0,1,4.38,2.53,11.19,11.19,0,0,1,2.82,3.71,10.07,10.07,0,0,1,.92,4.7,9.72,9.72,0,0,1-.76,3.55,10.66,10.66,0,0,1-1.78,2.86,14.17,14.17,0,0,1-2.48,2.28,17.53,17.53,0,0,1-2.92,1.73v.27a16.83,16.83,0,0,1,4,4.21,9.7,9.7,0,0,1,1.46,5.77,10.72,10.72,0,0,1-1.11,4.56,10.4,10.4,0,0,1-2.75,3.38,11.81,11.81,0,0,1-4.09,2.09,15.67,15.67,0,0,1-5,.61,14.92,14.92,0,0,1-5-1,11.3,11.3,0,0,1-3.79-2.44,9.77,9.77,0,0,1-2.33-3.63,12,12,0,0,1-.69-4.65,9.13,9.13,0,0,1,.6-3,11.82,11.82,0,0,1,1.38-2.58,13.88,13.88,0,0,1,1.88-2.17,16.35,16.35,0,0,1,2.07-1.66v-.26a22,22,0,0,1-2.7-1.91,12.32,12.32,0,0,1-2.21-2.41,11.54,11.54,0,0,1-1.47-3,11.13,11.13,0,0,1-.45-3.76,10,10,0,0,1,1.18-4.46,11.21,11.21,0,0,1,3-3.51,13.25,13.25,0,0,1,4.55-2.23A18.68,18.68,0,0,1,681.27,1214Zm-.33,5.38a7.45,7.45,0,0,0-5,1.46,5.71,5.71,0,0,0-2.1,4.53,5.2,5.2,0,0,0,.68,2.94,8,8,0,0,0,2,2.25,18.23,18.23,0,0,0,3.12,1.85c1.21.57,2.5,1.16,3.88,1.78a12.87,12.87,0,0,0,3.37-3.29,7.91,7.91,0,0,0,1.44-4.35,6.24,6.24,0,0,0-2-5.1A8.22,8.22,0,0,0,680.94,1219.34Zm-3.31,18.87a13.74,13.74,0,0,0-2.72,3.38,8.35,8.35,0,0,0-1,3.71,6.67,6.67,0,0,0,1.44,4.62,5.81,5.81,0,0,0,4.5,2,5.87,5.87,0,0,0,4.12-1.33,5.41,5.41,0,0,0,1.8-4.17,5.66,5.66,0,0,0-.56-2.78,6.64,6.64,0,0,0-1.73-2.13,16.33,16.33,0,0,0-2.6-1.74A32.43,32.43,0,0,0,677.63,1238.21Z"/><path d="M644.24,1212.09l-1.1,10.71,18.36,1.89-.53,5.09-19.1,24-9-.92,2.57-25-5.22-.54.59-5.81,5.23.54,1.1-10.71Zm9.21,17.65-10.91-1.12-1,9.4c-.13,1.22-.31,2.65-.54,4.3s-.46,3.08-.68,4.29l.27,0c.63-1,1.29-2.05,2-3l2.1-3.08Z"/><path d="M624.82,1209.75l-1,6.08-9.19-1.56-4.61,27,7.57,1.29-.79,4.66a36.28,36.28,0,0,0-5.58.48,24.18,24.18,0,0,0-4.51,1.27l-5.57-1,6-35.08-8.09-1.38,1-6.09Z"/><path d="M582.05,1200.68a14.33,14.33,0,0,1,6,2.85,17.09,17.09,0,0,1,3.76,4.35l-5,3.52a9.13,9.13,0,0,0-2.37-2.9,8.33,8.33,0,0,0-3.4-1.73,8.83,8.83,0,0,0-3.79-.1,7.87,7.87,0,0,0-3.58,1.81,15,15,0,0,0-3.18,4.13,31.39,31.39,0,0,0-2.63,6.87,13.15,13.15,0,0,1,5-2.47,10.62,10.62,0,0,1,5-.13,14.68,14.68,0,0,1,4.6,1.92,10.07,10.07,0,0,1,3.18,3.22,10.88,10.88,0,0,1,1.48,4.51,16.58,16.58,0,0,1-.47,5.76,14.65,14.65,0,0,1-2.34,5.28,13.32,13.32,0,0,1-3.75,3.53,12.21,12.21,0,0,1-4.69,1.67,13.52,13.52,0,0,1-5.17-.26,14.15,14.15,0,0,1-5.34-2.53,13,13,0,0,1-3.82-4.73,18.48,18.48,0,0,1-1.72-6.93,30.14,30.14,0,0,1,.94-9.12,35.37,35.37,0,0,1,3.75-9.84,21.13,21.13,0,0,1,5.17-6.09,13.85,13.85,0,0,1,6.06-2.76A15.21,15.21,0,0,1,582.05,1200.68Zm-6.9,21.16a7.72,7.72,0,0,0-4,.23,10.9,10.9,0,0,0-4.41,2.75q-.71,5.51.78,8.43a6.56,6.56,0,0,0,4.43,3.63,5.72,5.72,0,0,0,4.76-1,8.48,8.48,0,0,0,3.15-5.25c.58-2.43.45-4.38-.39-5.87A6.33,6.33,0,0,0,575.15,1221.84Z"/><path d="M551.81,1193.45a94.06,94.06,0,0,1-4,9.46,58.33,58.33,0,0,1-4.6,7.81,50.33,50.33,0,0,1-5.72,6.78,70.53,70.53,0,0,1-7.33,6.28l18.87,5.89-1.89,6.07-26.77-8.34,1.37-4.39a59.61,59.61,0,0,0,8.24-6.47,43.5,43.5,0,0,0,5.92-7,51.63,51.63,0,0,0,4.51-8.19q2-4.47,4.05-10.22Z"/><path d="M525,1184.75l-2.23,5.75-8.69-3.36-9.91,25.6,7.17,2.77-1.7,4.41a34.74,34.74,0,0,0-5.57-.64,24.76,24.76,0,0,0-4.67.34l-5.27-2L507,1184.39l-7.65-3,2.22-5.76Z"/><path d="M481.49,1165.73a14.35,14.35,0,0,1,4.78,3.57,13.15,13.15,0,0,1,2.81,5.41,18.46,18.46,0,0,1,.28,7.16,30.33,30.33,0,0,1-2.75,8.78,34.78,34.78,0,0,1-5.66,8.88,21.37,21.37,0,0,1-6.3,4.89,14.18,14.18,0,0,1-6.45,1.48,15.12,15.12,0,0,1-6.15-1.41,14.35,14.35,0,0,1-5.34-4,16.88,16.88,0,0,1-2.78-5l5.63-2.44a8.62,8.62,0,0,0,1.69,3.29,8.41,8.41,0,0,0,3,2.37,8.88,8.88,0,0,0,3.69.85,7.8,7.8,0,0,0,3.87-1.06,14.75,14.75,0,0,0,3.94-3.41,31.11,31.11,0,0,0,3.95-6.21,13.84,13.84,0,0,1-5.43,1.46,10.09,10.09,0,0,1-4.87-.82,15.28,15.28,0,0,1-4.16-2.81,10.26,10.26,0,0,1-2.5-3.81,11,11,0,0,1-.55-4.72,16.65,16.65,0,0,1,1.61-5.55,14.67,14.67,0,0,1,3.35-4.7,13.35,13.35,0,0,1,4.38-2.71,12.62,12.62,0,0,1,4.94-.73A13.4,13.4,0,0,1,481.49,1165.73Zm-2.32,5.3a5.71,5.71,0,0,0-4.88,0,8.64,8.64,0,0,0-4.13,4.59q-1.59,3.39-.81,5.78a6.3,6.3,0,0,0,3.62,3.72,7.79,7.79,0,0,0,3.85.6,11.26,11.26,0,0,0,5-1.78c1.22-3.54,1.55-6.35,1-8.44A6.46,6.46,0,0,0,479.17,1171Z"/><path d="M454.3,1152a14.43,14.43,0,0,1,5,4.34,17.12,17.12,0,0,1,2.46,5.18l-5.78,2.07a9.26,9.26,0,0,0-1.52-3.43,8.23,8.23,0,0,0-2.83-2.56,8.8,8.8,0,0,0-3.63-1.1,7.75,7.75,0,0,0-3.92.79,14.85,14.85,0,0,0-4.17,3.15,31,31,0,0,0-4.35,5.92,13.24,13.24,0,0,1,5.52-1,10.43,10.43,0,0,1,4.82,1.19,14.75,14.75,0,0,1,3.93,3.06,10,10,0,0,1,2.21,4,10.86,10.86,0,0,1,.24,4.75,16.53,16.53,0,0,1-2,5.43,14.6,14.6,0,0,1-3.66,4.47,13.24,13.24,0,0,1-4.55,2.4,12.16,12.16,0,0,1-5,.38,13.67,13.67,0,0,1-4.92-1.63,14.17,14.17,0,0,1-4.48-3.85,13,13,0,0,1-2.43-5.57,18.46,18.46,0,0,1,.18-7.14,30.14,30.14,0,0,1,3.32-8.55,35.36,35.36,0,0,1,6.22-8.5,21.22,21.22,0,0,1,6.6-4.49,13.81,13.81,0,0,1,6.58-1.06A15.16,15.16,0,0,1,454.3,1152ZM442,1170.56a7.73,7.73,0,0,0-3.92-.84,10.81,10.81,0,0,0-5,1.49q-2.14,5.11-1.48,8.33a6.55,6.55,0,0,0,3.31,4.67,5.69,5.69,0,0,0,4.83.34,8.43,8.43,0,0,0,4.43-4.23c1.21-2.19,1.6-4.11,1.19-5.76A6.39,6.39,0,0,0,442,1170.56Z"/><path d="M423.5,1133.79a19,19,0,0,1,6.26,6,18.59,18.59,0,0,1,2.48,6.59l-5.66,2.14a19.87,19.87,0,0,0-1.89-5.08,11.45,11.45,0,0,0-4-4.15,8.8,8.8,0,0,0-5.58-1.58,5.53,5.53,0,0,0-4.29,2.74,7,7,0,0,0-1.1,2.81,5.27,5.27,0,0,0,.48,3,11,11,0,0,0,2.41,3.22,29.75,29.75,0,0,0,4.71,3.61l-3,4.64a23,23,0,0,0-4.6-2.37,10,10,0,0,0-3.57-.65,5.23,5.23,0,0,0-2.7.81,6.53,6.53,0,0,0-1.92,2,5.26,5.26,0,0,0-.84,4.34,6.54,6.54,0,0,0,3,3.69,9.26,9.26,0,0,0,4.37,1.52,19.7,19.7,0,0,0,4.83-.29l.74,6a24.54,24.54,0,0,1-6.89.1,15.68,15.68,0,0,1-6.5-2.45,19.8,19.8,0,0,1-4.25-3.59,12.24,12.24,0,0,1-2.44-4.1,9.86,9.86,0,0,1-.44-4.42,10.7,10.7,0,0,1,1.71-4.48,9,9,0,0,1,4.82-3.93,12.59,12.59,0,0,1,6.49-.2l.14-.22a12.66,12.66,0,0,1-3.27-6.39,9.5,9.5,0,0,1,1.58-7,10.91,10.91,0,0,1,3.73-3.68,11.08,11.08,0,0,1,4.69-1.48,14.64,14.64,0,0,1,5.2.53A19.26,19.26,0,0,1,423.5,1133.79Z"/><path d="M396.44,1115.27a14.31,14.31,0,0,1,4.41,5,17.07,17.07,0,0,1,1.75,5.47l-6,1.27a9,9,0,0,0-1-3.6,8.42,8.42,0,0,0-2.45-2.92,9,9,0,0,0-3.45-1.58,7.92,7.92,0,0,0-4,.27,14.85,14.85,0,0,0-4.55,2.56A31,31,0,0,0,376,1127a13.37,13.37,0,0,1,5.61-.3,10.54,10.54,0,0,1,4.61,1.82,14.53,14.53,0,0,1,3.49,3.57,10,10,0,0,1,1.66,4.21,10.78,10.78,0,0,1-.4,4.73,16.54,16.54,0,0,1-2.68,5.12,14.65,14.65,0,0,1-4.23,3.94,12.88,12.88,0,0,1-4.83,1.77,12.13,12.13,0,0,1-5-.29,13.7,13.7,0,0,1-4.66-2.26,14.32,14.32,0,0,1-3.92-4.42A13.13,13.13,0,0,1,364,1139a18.86,18.86,0,0,1,1.14-7,30.37,30.37,0,0,1,4.43-8,35.77,35.77,0,0,1,7.3-7.59,21.13,21.13,0,0,1,7.14-3.57,14,14,0,0,1,6.67-.17A15.14,15.14,0,0,1,396.44,1115.27ZM381.81,1132a7.81,7.81,0,0,0-3.77-1.36,11,11,0,0,0-5.14.81q-2.81,4.79-2.58,8.06a6.58,6.58,0,0,0,2.66,5.08,5.76,5.76,0,0,0,4.75,1,8.42,8.42,0,0,0,4.95-3.6q2.24-3,1.95-5.55A6.36,6.36,0,0,0,381.81,1132Z"/><path d="M369.49,1094.09a14.47,14.47,0,0,1,4.06,5.26,16.94,16.94,0,0,1,1.39,5.57l-6.08.87a9.39,9.39,0,0,0-.81-3.66,8.45,8.45,0,0,0-2.26-3.08,8.87,8.87,0,0,0-3.33-1.8,7.78,7.78,0,0,0-4,0,14.92,14.92,0,0,0-4.71,2.25,31,31,0,0,0-5.44,4.94,13.29,13.29,0,0,1,5.62.08,10.44,10.44,0,0,1,4.48,2.12,14.77,14.77,0,0,1,3.24,3.79,10,10,0,0,1,1.38,4.32,10.9,10.9,0,0,1-.71,4.69,16.83,16.83,0,0,1-3,4.93,14.75,14.75,0,0,1-4.48,3.65,13.19,13.19,0,0,1-4.94,1.45,12.14,12.14,0,0,1-4.94-.63,13.54,13.54,0,0,1-4.49-2.56,14.21,14.21,0,0,1-3.62-4.67,13,13,0,0,1-1.28-5.95,18.74,18.74,0,0,1,1.6-7,30.28,30.28,0,0,1,5-7.71,35.26,35.26,0,0,1,7.78-7.09,21.17,21.17,0,0,1,7.37-3.09,14,14,0,0,1,6.66.27A15.43,15.43,0,0,1,369.49,1094.09Zm-15.72,15.77a7.75,7.75,0,0,0-3.67-1.61,11,11,0,0,0-5.18.47q-3.12,4.59-3.11,7.87a6.55,6.55,0,0,0,2.32,5.24,5.71,5.71,0,0,0,4.67,1.3,8.45,8.45,0,0,0,5.18-3.27q2.43-2.85,2.31-5.4A6.37,6.37,0,0,0,353.77,1109.86Z"/><path d="M332.85,1060.17a19.11,19.11,0,0,1,4.71,7.31,18.6,18.6,0,0,1,.91,7l-6,.79a19.3,19.3,0,0,0-.68-5.37,11.33,11.33,0,0,0-2.92-5,8.66,8.66,0,0,0-5.06-2.82,5.55,5.55,0,0,0-4.81,1.68,7,7,0,0,0-1.71,2.48,5.16,5.16,0,0,0-.21,3,10.94,10.94,0,0,0,1.61,3.7,29.46,29.46,0,0,0,3.76,4.59l-4,3.83a23.19,23.19,0,0,0-3.94-3.36,9.81,9.81,0,0,0-3.32-1.44,5.19,5.19,0,0,0-2.81.16,6.52,6.52,0,0,0-2.32,1.47,5.25,5.25,0,0,0-1.81,4,6.57,6.57,0,0,0,2.09,4.28,9.4,9.4,0,0,0,3.91,2.48,19.47,19.47,0,0,0,4.77.82l-.66,6a24.33,24.33,0,0,1-6.73-1.48,15.59,15.59,0,0,1-5.76-3.87,19.89,19.89,0,0,1-3.32-4.47,12.34,12.34,0,0,1-1.44-4.55,9.72,9.72,0,0,1,.59-4.4,10.86,10.86,0,0,1,2.68-4,9,9,0,0,1,5.6-2.71,12.59,12.59,0,0,1,6.36,1.28l.19-.18a12.74,12.74,0,0,1-1.72-7,9.43,9.43,0,0,1,3.14-6.47,11,11,0,0,1,4.48-2.74,11.32,11.32,0,0,1,4.91-.36,14.6,14.6,0,0,1,4.94,1.7A19.21,19.21,0,0,1,332.85,1060.17Z"/><path d="M313.91,1039.8a4.7,4.7,0,0,1,1.24,3.59,5.48,5.48,0,0,1-5.51,4.86,4.68,4.68,0,0,1-3.41-1.67A4.62,4.62,0,0,1,305,1043a5.58,5.58,0,0,1,5.52-4.86A4.61,4.61,0,0,1,313.91,1039.8Z"/><path d="M303.65,1029.25l-4.83,3.84-5.8-7.3-21.5,17.07,4.78,6-3.7,2.94a34.92,34.92,0,0,0-4.47-3.36,24.5,24.5,0,0,0-4.21-2.07l-3.51-4.42,27.87-22.14-5.1-6.42,4.83-3.84Z"/><path d="M274.17,990l-8.86,6.12,10.48,15.18-4.21,2.91-30.69,1.09-5.11-7.41,20.69-14.29-3-4.32,4.81-3.32,3,4.32,8.86-6.12Zm-7.44,18.46-6.23-9-7.78,5.37c-1,.7-2.22,1.49-3.62,2.38s-2.64,1.65-3.7,2.28l.15.21c1.2-.19,2.39-.34,3.58-.47l3.71-.41Z"/><path d="M263.34,973.7l-5.3,3.16-4.78-8-23.57,14,3.93,6.6-4.06,2.43a35.6,35.6,0,0,0-4-3.94,25,25,0,0,0-3.89-2.61l-2.89-4.85,30.57-18.22-4.2-7,5.3-3.16Z"/><path d="M241.8,933.9a18.71,18.71,0,0,1,2.3,8.37,21.85,21.85,0,0,1-1,7l-5.9-.9a22.41,22.41,0,0,0,.84-5.22,10.84,10.84,0,0,0-1.3-5.53,8.19,8.19,0,0,0-4.5-4.23,7.81,7.81,0,0,0-9.78,11,9.17,9.17,0,0,0,2,2.79,20.21,20.21,0,0,0,3.1,2.11l-.41,4.26-18.95,8.23-10.11-19.9,5.68-2.89L211,953l9.4-3.82a15.15,15.15,0,0,1-2.09-1.85,11,11,0,0,1-1.64-2.44A16.08,16.08,0,0,1,215,940a11.36,11.36,0,0,1,.24-4.8,11.57,11.57,0,0,1,2.35-4.36,16.26,16.26,0,0,1,10.7-5.25,13.55,13.55,0,0,1,5.51.84,14.07,14.07,0,0,1,4.62,2.92A16.34,16.34,0,0,1,241.8,933.9Z"/><path d="M227.86,904.3a14.44,14.44,0,0,1,1.28,6.53,17.08,17.08,0,0,1-1.25,5.6l-5.83-1.94a9.17,9.17,0,0,0,.91-3.64,8.19,8.19,0,0,0-.64-3.76,8.76,8.76,0,0,0-2.18-3.1,7.69,7.69,0,0,0-3.58-1.8,14.86,14.86,0,0,0-5.21-.09,31.29,31.29,0,0,0-7.08,2,13.41,13.41,0,0,1,5,2.58,10.51,10.51,0,0,1,3.06,3.91,14.75,14.75,0,0,1,1.2,4.84,10.18,10.18,0,0,1-.69,4.47,10.92,10.92,0,0,1-2.74,3.88,16.63,16.63,0,0,1-4.91,3.06,14.79,14.79,0,0,1-5.63,1.26,13.14,13.14,0,0,1-5.07-.91,12.3,12.3,0,0,1-4.14-2.77,13.5,13.5,0,0,1-2.87-4.31,14.22,14.22,0,0,1-1.15-5.79,13,13,0,0,1,1.52-5.89,18.61,18.61,0,0,1,4.54-5.51,30.24,30.24,0,0,1,7.89-4.68,35.4,35.4,0,0,1,10.13-2.86,21.07,21.07,0,0,1,8,.53,14,14,0,0,1,5.84,3.22A15.36,15.36,0,0,1,227.86,904.3Zm-21.11,7.08a7.66,7.66,0,0,0-2.57-3.08,10.9,10.9,0,0,0-4.84-1.9c-3.23,1.8-5.33,3.69-6.3,5.65a6.56,6.56,0,0,0-.27,5.72,5.75,5.75,0,0,0,3.6,3.25,8.47,8.47,0,0,0,6.09-.6q3.45-1.47,4.48-3.81A6.33,6.33,0,0,0,206.75,911.38Z"/><path d="M218.45,883.76l-4.16,1.45q-5.39-2.7-9.9-4.85t-8.17-3.48a31.61,31.61,0,0,0-6.57-1.7,11.19,11.19,0,0,0-5.15.41,7.52,7.52,0,0,0-4.4,3.41,6.59,6.59,0,0,0-.14,5.48,7.66,7.66,0,0,0,2.76,3.73,21.06,21.06,0,0,0,4.32,2.41L184.46,896a24.27,24.27,0,0,1-6.45-4,15.27,15.27,0,0,1-4-6.42,15.51,15.51,0,0,1-.93-5.45,11.83,11.83,0,0,1,1.09-4.76,11.64,11.64,0,0,1,2.93-3.84,14,14,0,0,1,4.65-2.64,14.3,14.3,0,0,1,5.7-.7,31.41,31.41,0,0,1,6.54,1.2,65.93,65.93,0,0,1,7.26,2.57q3.83,1.59,7.94,3.42c-.44-1-.93-2.09-1.45-3.25s-.95-2.22-1.28-3.17l-3.38-9.67,6.08-2.12Z"/><path d="M203.92,836.06a14.33,14.33,0,0,1,.39,6,13.16,13.16,0,0,1-2.3,5.63,18.43,18.43,0,0,1-5.26,4.86,30.57,30.57,0,0,1-8.48,3.6,35,35,0,0,1-10.43,1.45,21.11,21.11,0,0,1-7.8-1.63,14.19,14.19,0,0,1-5.32-3.95,15.14,15.14,0,0,1-2.9-5.6,14.32,14.32,0,0,1-.41-6.67,17.1,17.1,0,0,1,2-5.35l5.51,2.7a8.6,8.6,0,0,0-1.41,3.42,8.42,8.42,0,0,0,.13,3.81,9,9,0,0,0,1.75,3.37,7.84,7.84,0,0,0,3.31,2.26,15.09,15.09,0,0,0,5.16.79,31.66,31.66,0,0,0,7.28-1,13.93,13.93,0,0,1-4.63-3.19,10.11,10.11,0,0,1-2.53-4.24,15.05,15.05,0,0,1-.56-5,10.14,10.14,0,0,1,1.28-4.37,10.94,10.94,0,0,1,3.23-3.48,16.67,16.67,0,0,1,5.27-2.37,14.63,14.63,0,0,1,5.76-.5,13,13,0,0,1,4.89,1.58,12.58,12.58,0,0,1,3.77,3.29A13,13,0,0,1,203.92,836.06Zm-5.53,1.66a5.72,5.72,0,0,0-3.14-3.73,8.63,8.63,0,0,0-6.18-.17c-2.4.66-4,1.71-4.92,3.13a6.33,6.33,0,0,0-.49,5.17,7.88,7.88,0,0,0,2,3.32,11.34,11.34,0,0,0,4.58,2.63q5.22-2.05,7.07-4.72A6.41,6.41,0,0,0,198.39,837.72Z"/><path d="M196.44,804.9a18.78,18.78,0,0,1,0,8.68,22,22,0,0,1-2.8,6.43l-5.46-2.43a23.31,23.31,0,0,0,2.2-4.8,11,11,0,0,0,.21-5.68,8.23,8.23,0,0,0-3.23-5.27A7.81,7.81,0,0,0,175,809.9a9.08,9.08,0,0,0,1.23,3.23,19.32,19.32,0,0,0,2.43,2.85l-1.53,4-20.44,2.93L152.22,801l6.24-1.28,3.16,15.43L171.7,814a15.27,15.27,0,0,1-1.52-2.34,11.13,11.13,0,0,1-.94-2.79,16.3,16.3,0,0,1-.25-5.14,11.1,11.1,0,0,1,4.93-8.15,16.26,16.26,0,0,1,11.71-2.24,13.47,13.47,0,0,1,5.09,2.27,14.11,14.11,0,0,1,3.68,4A16.36,16.36,0,0,1,196.44,804.9Z"/><path d="M190.61,771.17a18.9,18.9,0,0,1-.53,8.69,18.64,18.64,0,0,1-3.4,6.17l-5.3-2.92a19.52,19.52,0,0,0,2.63-4.74,11.36,11.36,0,0,0,.58-5.71,8.8,8.8,0,0,0-2.41-5.27,5.59,5.59,0,0,0-4.88-1.49,7.21,7.21,0,0,0-2.85,1,5.26,5.26,0,0,0-1.94,2.29,11.18,11.18,0,0,0-.89,3.93,29.85,29.85,0,0,0,.32,5.92l-5.47.75a22.89,22.89,0,0,0-1.18-5,10,10,0,0,0-1.82-3.13,5.06,5.06,0,0,0-2.37-1.53,6.45,6.45,0,0,0-2.74-.19,5.19,5.19,0,0,0-3.84,2.18,6.52,6.52,0,0,0-.85,4.69,9.22,9.22,0,0,0,1.68,4.31,19.23,19.23,0,0,0,3.36,3.48L154.62,789a24.61,24.61,0,0,1-4.56-5.17,15.9,15.9,0,0,1-2.35-6.54,19.94,19.94,0,0,1,0-5.56,12,12,0,0,1,1.54-4.52,9.58,9.58,0,0,1,3.07-3.2,10.79,10.79,0,0,1,4.52-1.62,9.07,9.07,0,0,1,6.12,1.12,12.62,12.62,0,0,1,4.36,4.8l.26,0a12.83,12.83,0,0,1,2.74-6.64,9.54,9.54,0,0,1,6.37-3.36,11,11,0,0,1,5.23.45,11.23,11.23,0,0,1,4.17,2.61,14.57,14.57,0,0,1,3,4.3A19.12,19.12,0,0,1,190.61,771.17Z"/><path d="M187,737a18.75,18.75,0,0,1-1.15,8.6,21.75,21.75,0,0,1-3.63,6l-5.09-3.13A22.48,22.48,0,0,0,180,744a11.06,11.06,0,0,0,1-5.59,8.24,8.24,0,0,0-2.5-5.65,7.82,7.82,0,0,0-13.32,6.36,9.32,9.32,0,0,0,.8,3.36,19.45,19.45,0,0,0,2,3.15l-2,3.77-20.66.18-1.55-22.27,6.35-.44,1.1,15.72,10.15.15a14.41,14.41,0,0,1-1.2-2.52,10.44,10.44,0,0,1-.56-2.89,16.12,16.12,0,0,1,.43-5.13,11.11,11.11,0,0,1,6-7.42,14.62,14.62,0,0,1,5.72-1.46,14.91,14.91,0,0,1,6.18.79,13.51,13.51,0,0,1,7.85,7.42A16.39,16.39,0,0,1,187,737Z"/><path d="M185.7,701.7a18.34,18.34,0,0,1-.84,5.68,13.83,13.83,0,0,1-2.35,4.48,11,11,0,0,1-3.6,3,9.92,9.92,0,0,1-4.66,1.1,9.79,9.79,0,0,1-3.58-.61,11.05,11.05,0,0,1-2.92-1.66,15,15,0,0,1-2.38-2.39,18.71,18.71,0,0,1-1.84-2.85h-.27a16.83,16.83,0,0,1-4,4.11,9.62,9.62,0,0,1-5.71,1.7,10.81,10.81,0,0,1-4.6-.94,10.36,10.36,0,0,1-3.49-2.61,11.9,11.9,0,0,1-2.24-4,15.45,15.45,0,0,1-.81-5,14.82,14.82,0,0,1,.8-5.09,11.5,11.5,0,0,1,2.29-3.88A9.86,9.86,0,0,1,149,690.2a12.15,12.15,0,0,1,4.62-.87,9.23,9.23,0,0,1,3,.48,12.09,12.09,0,0,1,2.63,1.28,13.39,13.39,0,0,1,2.24,1.8,18.08,18.08,0,0,1,1.75,2h.26a20.4,20.4,0,0,1,1.8-2.76,12.08,12.08,0,0,1,2.32-2.31,10.86,10.86,0,0,1,6.69-2.19,10.16,10.16,0,0,1,4.5,1,11.16,11.16,0,0,1,3.62,2.85,13.2,13.2,0,0,1,2.41,4.45A18.63,18.63,0,0,1,185.7,701.7ZM161.33,699a13.76,13.76,0,0,0-3.49-2.58,8.29,8.29,0,0,0-3.75-.87,6.58,6.58,0,0,0-4.55,1.62,6.52,6.52,0,0,0-.3,8.64,5.41,5.41,0,0,0,4.24,1.63,5.62,5.62,0,0,0,2.75-.67,6.56,6.56,0,0,0,2.06-1.81,16.19,16.19,0,0,0,1.64-2.67A33.9,33.9,0,0,0,161.33,699Zm19,2.57a7.33,7.33,0,0,0-1.66-5,5.7,5.7,0,0,0-4.6-1.93,5.29,5.29,0,0,0-2.92.8,8,8,0,0,0-2.16,2.14,17.62,17.62,0,0,0-1.73,3.19c-.52,1.23-1.06,2.55-1.63,3.95A13,13,0,0,0,169,708a7.85,7.85,0,0,0,4.4,1.26,6.18,6.18,0,0,0,5-2.25A8.18,8.18,0,0,0,180.31,701.59Z"/><path d="M186.55,670.07a14.33,14.33,0,0,1-1.78,6.4,16.79,16.79,0,0,1-3.64,4.44l-4.33-4.35a9.19,9.19,0,0,0,2.45-2.84,8.26,8.26,0,0,0,1.12-3.65,8.79,8.79,0,0,0-.56-3.75,7.69,7.69,0,0,0-2.39-3.21,14.89,14.89,0,0,0-4.62-2.43,31.16,31.16,0,0,0-7.21-1.41,13.38,13.38,0,0,1,3.3,4.55,10.57,10.57,0,0,1,1,4.87,14.55,14.55,0,0,1-1.09,4.86,10.15,10.15,0,0,1-2.64,3.69,10.89,10.89,0,0,1-4.18,2.23,16.57,16.57,0,0,1-5.76.53,14.53,14.53,0,0,1-5.6-1.41,13,13,0,0,1-4.12-3.09,12.12,12.12,0,0,1-2.45-4.33,13.35,13.35,0,0,1-.63-5.14,14.15,14.15,0,0,1,1.57-5.69,13.14,13.14,0,0,1,4-4.58,18.6,18.6,0,0,1,6.53-2.88,30.17,30.17,0,0,1,9.15-.64,35.45,35.45,0,0,1,10.33,2,21.24,21.24,0,0,1,6.89,4,14.08,14.08,0,0,1,3.76,5.5A15.19,15.19,0,0,1,186.55,670.07Zm-22-3.17a7.81,7.81,0,0,0-.91-3.9,11,11,0,0,0-3.47-3.87q-5.55.24-8.17,2.21a6.54,6.54,0,0,0-2.81,5,5.74,5.74,0,0,0,1.75,4.52,8.45,8.45,0,0,0,5.72,2.2q3.74.24,5.71-1.38A6.38,6.38,0,0,0,164.52,666.9Z"/><path d="M188.48,639a93.75,93.75,0,0,1-10-2.29,58.92,58.92,0,0,1-8.49-3.19,50.09,50.09,0,0,1-7.67-4.47,72.43,72.43,0,0,1-7.44-6.13l-2.55,19.59-6.32-.82,3.62-27.8,4.56.59a58.92,58.92,0,0,0,7.79,7,44.15,44.15,0,0,0,7.88,4.63,51.31,51.31,0,0,0,8.84,3c3.16.78,6.75,1.53,10.77,2.22Z"/><path d="M195.05,602a14.27,14.27,0,0,1-2.62,6.11,16.6,16.6,0,0,1-4.19,3.92l-3.71-4.88a9.39,9.39,0,0,0,2.8-2.49,8.42,8.42,0,0,0,1.59-3.47,8.8,8.8,0,0,0,0-3.79,7.74,7.74,0,0,0-2-3.5,14.85,14.85,0,0,0-4.26-3,31.11,31.11,0,0,0-7-2.35,13.32,13.32,0,0,1,2.67,4.94,10.55,10.55,0,0,1,.32,5,14.5,14.5,0,0,1-1.73,4.67,10,10,0,0,1-3.1,3.3,10.87,10.87,0,0,1-4.44,1.67,16.71,16.71,0,0,1-5.78-.25,14.65,14.65,0,0,1-5.37-2.13,13.16,13.16,0,0,1-3.67-3.61,12.1,12.1,0,0,1-1.86-4.62,13.64,13.64,0,0,1,.06-5.17,14.1,14.1,0,0,1,2.31-5.43,13.15,13.15,0,0,1,4.58-4,18.5,18.5,0,0,1,6.86-2,30.15,30.15,0,0,1,9.15.57,35.54,35.54,0,0,1,10,3.35,21.32,21.32,0,0,1,6.29,4.93,14,14,0,0,1,3,6A15.23,15.23,0,0,1,195.05,602Zm-21.42-6a7.84,7.84,0,0,0-.38-4,11,11,0,0,0-2.93-4.3c-3.69-.33-6.48,0-8.39,1.12a6.53,6.53,0,0,0-3.45,4.57,5.75,5.75,0,0,0,1.14,4.71A8.47,8.47,0,0,0,165,601c2.45.48,4.4.28,5.85-.62A6.34,6.34,0,0,0,173.63,596Z"/><path d="M203.06,567.16a19,19,0,0,1-3.87,7.8,18.67,18.67,0,0,1-5.52,4.37l-3.76-4.75a19.49,19.49,0,0,0,4.27-3.34,11.37,11.37,0,0,0,2.74-5,8.69,8.69,0,0,0-.17-5.8,5.57,5.57,0,0,0-3.92-3.26,7.09,7.09,0,0,0-3-.19,5.2,5.2,0,0,0-2.67,1.35,10.86,10.86,0,0,0-2.34,3.28,29.3,29.3,0,0,0-2,5.58l-5.33-1.43a22.91,22.91,0,0,0,.86-5.11,9.91,9.91,0,0,0-.46-3.59,5.17,5.17,0,0,0-1.59-2.33,6.51,6.51,0,0,0-2.45-1.23,5.22,5.22,0,0,0-4.39.52,6.5,6.5,0,0,0-2.6,4,9.31,9.31,0,0,0-.12,4.62,19.07,19.07,0,0,0,1.74,4.52l-5.5,2.53a24.46,24.46,0,0,1-2.19-6.54,15.65,15.65,0,0,1,.37-6.93,19.84,19.84,0,0,1,2.12-5.14,12.29,12.29,0,0,1,3.17-3.57,9.62,9.62,0,0,1,4.08-1.76,10.8,10.8,0,0,1,4.79.26,9,9,0,0,1,5.2,3.41,12.54,12.54,0,0,1,2.17,6.12l.25.07a12.72,12.72,0,0,1,5.1-5.06,9.47,9.47,0,0,1,7.17-.62,10.83,10.83,0,0,1,7.47,6.46,14.6,14.6,0,0,1,1.08,5.11A19.49,19.49,0,0,1,203.06,567.16Z"/><path d="M208,546.63l-4.16-1.42q-2.58-5.46-4.8-9.93t-4.28-7.78a32.15,32.15,0,0,0-4.12-5.4,11.28,11.28,0,0,0-4.3-2.85,7.56,7.56,0,0,0-5.58,0,6.61,6.61,0,0,0-3.49,4.22,7.66,7.66,0,0,0-.12,4.64,21.17,21.17,0,0,0,1.9,4.57l-5.33,2.62a24.07,24.07,0,0,1-2.58-7.17,15.19,15.19,0,0,1,.8-7.53,15.47,15.47,0,0,1,2.63-4.86,11.84,11.84,0,0,1,3.79-3.07,11.66,11.66,0,0,1,4.68-1.21,14,14,0,0,1,5.28.79,14.41,14.41,0,0,1,4.92,3,31.38,31.38,0,0,1,4.41,5,68.61,68.61,0,0,1,4.12,6.51q2,3.62,4.14,7.59.4-1.59.87-3.45c.31-1.24.62-2.33,1-3.28l3.31-9.7,6.09,2.08Z"/><path d="M225.08,502.26a19,19,0,0,1-4.87,7.21,18.69,18.69,0,0,1-6.06,3.59l-3.09-5.21a19.25,19.25,0,0,0,4.68-2.74,11.34,11.34,0,0,0,3.39-4.63,8.71,8.71,0,0,0,.6-5.76,5.55,5.55,0,0,0-3.45-3.76,7.07,7.07,0,0,0-2.95-.59,5.17,5.17,0,0,0-2.83,1,11,11,0,0,0-2.76,2.94,29,29,0,0,0-2.74,5.26l-5.09-2.13a22.45,22.45,0,0,0,1.54-4.94,10,10,0,0,0,0-3.62,5.19,5.19,0,0,0-1.26-2.52,6.39,6.39,0,0,0-2.27-1.56,5.26,5.26,0,0,0-4.42-.07,6.51,6.51,0,0,0-3.11,3.61,9.36,9.36,0,0,0-.74,4.57,19.15,19.15,0,0,0,1.13,4.71l-5.8,1.77a24.61,24.61,0,0,1-1.29-6.77,15.81,15.81,0,0,1,1.29-6.83,20.26,20.26,0,0,1,2.79-4.81,12.49,12.49,0,0,1,3.62-3.11,9.68,9.68,0,0,1,4.28-1.2,10.94,10.94,0,0,1,4.71.9,9,9,0,0,1,4.7,4.07,12.54,12.54,0,0,1,1.33,6.36l.24.1a12.75,12.75,0,0,1,5.73-4.33,9.44,9.44,0,0,1,7.18.34,11,11,0,0,1,4.29,3,11.2,11.2,0,0,1,2.26,4.37,14.45,14.45,0,0,1,.38,5.21A19.09,19.09,0,0,1,225.08,502.26Z"/><path d="M239.79,470.08a18.1,18.1,0,0,1-3.3,4.7,13.89,13.89,0,0,1-4.11,2.94,11.14,11.14,0,0,1-4.55,1,10,10,0,0,1-4.66-1.12,9.72,9.72,0,0,1-2.92-2.15,11.38,11.38,0,0,1-1.87-2.81,15,15,0,0,1-1-3.2,19.1,19.1,0,0,1-.37-3.37l-.23-.12a16.76,16.76,0,0,1-5.48,1.85,9.65,9.65,0,0,1-5.86-1.06,10.77,10.77,0,0,1-3.68-2.9,10.33,10.33,0,0,1-1.94-3.91,12,12,0,0,1-.21-4.58,15.75,15.75,0,0,1,1.54-4.84,14.92,14.92,0,0,1,3-4.19,11.57,11.57,0,0,1,3.79-2.44,9.78,9.78,0,0,1,4.27-.61,11.88,11.88,0,0,1,4.52,1.3,9,9,0,0,1,2.46,1.78,12,12,0,0,1,1.77,2.32,13.35,13.35,0,0,1,1.19,2.61,16,16,0,0,1,.66,2.57l.24.12a20.18,20.18,0,0,1,2.85-1.66,12.33,12.33,0,0,1,3.11-1,11.68,11.68,0,0,1,3.35-.09,11,11,0,0,1,3.61,1.15,10,10,0,0,1,3.57,2.92,11,11,0,0,1,2,4.17,13.29,13.29,0,0,1,.15,5.06A18.5,18.5,0,0,1,239.79,470.08Zm-20.56-13.35a13.68,13.68,0,0,0-1.95-3.88,8.25,8.25,0,0,0-2.95-2.46,6.57,6.57,0,0,0-4.8-.6,5.78,5.78,0,0,0-3.66,3.27,5.89,5.89,0,0,0-.5,4.3,5.38,5.38,0,0,0,3.06,3.36,5.58,5.58,0,0,0,2.76.65,6.82,6.82,0,0,0,2.66-.69A15.87,15.87,0,0,0,216.5,459,32.08,32.08,0,0,0,219.23,456.73ZM235,467.56a7.41,7.41,0,0,0,.75-5.17,5.69,5.69,0,0,0-3.25-3.79,5.36,5.36,0,0,0-3-.6,8,8,0,0,0-2.89.94,17.12,17.12,0,0,0-3,2.07q-1.53,1.31-3.23,2.79a13,13,0,0,0,1.6,4.44,7.84,7.84,0,0,0,3.36,3.11,6.23,6.23,0,0,0,5.49.25A8.23,8.23,0,0,0,235,467.56Z"/><path d="M256.84,437.19l-9.28-5.45-9.34,15.91-4.42-2.59L219.86,417.7l4.55-7.76,21.69,12.73,2.66-4.54,5,3-2.66,4.53,9.29,5.45ZM237,438.24l5.55-9.46L234.36,424q-1.59-.93-3.69-2.28c-1.4-.9-2.61-1.7-3.62-2.39l-.13.23c.68,1,1.32,2,1.94,3l1.94,3.19Z"/><path d="M275.13,410a14.49,14.49,0,0,1-4.29,4.15,13.15,13.15,0,0,1-5.79,1.9,18.33,18.33,0,0,1-7.11-.87,30.61,30.61,0,0,1-8.23-4.13,34.85,34.85,0,0,1-7.85-7,21.19,21.19,0,0,1-3.81-7,14.11,14.11,0,0,1-.43-6.6A14.9,14.9,0,0,1,240,384.6a14.31,14.31,0,0,1,4.81-4.63A17.22,17.22,0,0,1,250.2,378l1.5,6a8.52,8.52,0,0,0-3.51,1.14,8.22,8.22,0,0,0-2.82,2.57,8.84,8.84,0,0,0-1.44,3.51,7.65,7.65,0,0,0,.43,4,14.91,14.91,0,0,0,2.73,4.45,30.86,30.86,0,0,0,5.49,4.88,13.69,13.69,0,0,1-.56-5.58,10.16,10.16,0,0,1,1.59-4.68,14.88,14.88,0,0,1,3.44-3.65,10.05,10.05,0,0,1,4.16-1.86A11,11,0,0,1,266,389a16.87,16.87,0,0,1,5.22,2.48,14.75,14.75,0,0,1,4.11,4.07,13.07,13.07,0,0,1,2,4.75,12.57,12.57,0,0,1-.06,5A13.29,13.29,0,0,1,275.13,410Zm-4.85-3.14a5.73,5.73,0,0,0,.81-4.81,8.62,8.62,0,0,0-3.87-4.82q-3.09-2.1-5.57-1.73a6.33,6.33,0,0,0-4.26,3,7.79,7.79,0,0,0-1.21,3.7,11.36,11.36,0,0,0,1,5.18q5,2.65,8.17,2.35A6.46,6.46,0,0,0,270.28,406.87Z"/><path d="M285.21,394.14l-3.46-2.71q-.64-6-1.26-11c-.42-3.3-.91-6.22-1.49-8.75a31.59,31.59,0,0,0-2.11-6.46,11.26,11.26,0,0,0-3.12-4.11,7.59,7.59,0,0,0-5.26-1.86,6.59,6.59,0,0,0-4.68,2.84,7.62,7.62,0,0,0-1.65,4.34,20.74,20.74,0,0,0,.3,4.94l-5.9.72a24.15,24.15,0,0,1-.08-7.62,15.05,15.05,0,0,1,3.23-6.84,15.31,15.31,0,0,1,4.09-3.73,11.49,11.49,0,0,1,9.41-1.26,14.21,14.21,0,0,1,8.39,6.91,31.46,31.46,0,0,1,2.53,6.15,70.46,70.46,0,0,1,1.75,7.5q.74,4.08,1.41,8.53c.61-.91,1.26-1.91,1.95-3s1.36-2,2-2.79l6.32-8.07,5.06,4Z"/><path d="M317.51,356.16a14.47,14.47,0,0,1-4.81,3.54,13.09,13.09,0,0,1-6,1.12,18.4,18.4,0,0,1-6.94-1.81,30.84,30.84,0,0,1-7.6-5.18,35,35,0,0,1-6.86-8,21.47,21.47,0,0,1-2.85-7.44,14.14,14.14,0,0,1,.46-6.61,15,15,0,0,1,3.14-5.47,14.3,14.3,0,0,1,5.39-3.95,17,17,0,0,1,5.58-1.21l.7,6.1a8.49,8.49,0,0,0-3.63.66,8.37,8.37,0,0,0-3.14,2.18,9,9,0,0,0-1.89,3.28,7.72,7.72,0,0,0-.1,4,14.64,14.64,0,0,0,2.12,4.77,31.18,31.18,0,0,0,4.79,5.57,13.71,13.71,0,0,1,.18-5.61,10.16,10.16,0,0,1,2.2-4.43,15.06,15.06,0,0,1,3.9-3.16,10,10,0,0,1,4.36-1.29,11,11,0,0,1,4.68.84,16.63,16.63,0,0,1,4.84,3.15,14.59,14.59,0,0,1,3.53,4.58,13,13,0,0,1,1.32,5,12.53,12.53,0,0,1-.73,4.94A13.45,13.45,0,0,1,317.51,356.16Zm-4.39-3.76a5.71,5.71,0,0,0,1.44-4.66,8.65,8.65,0,0,0-3.2-5.29c-1.85-1.66-3.62-2.48-5.29-2.45a6.32,6.32,0,0,0-4.61,2.39,7.8,7.8,0,0,0-1.7,3.51,11.54,11.54,0,0,0,.27,5.27c3,2.19,5.63,3.32,7.79,3.41A6.43,6.43,0,0,0,313.12,352.4Z"/><path d="M341.83,329.83l-7.49-7.74-13.26,12.83-3.56-3.68-6.11-30.09,6.47-6.26L335.37,313l3.77-3.66,4.07,4.2-3.78,3.66,7.49,7.73Zm-19.44-4.31,7.88-7.63-6.57-6.79q-1.29-1.32-2.95-3.19t-2.85-3.27l-.18.18c.38,1.16.73,2.31,1,3.46s.66,2.35,1,3.59Z"/><path d="M364.88,309.83a19,19,0,0,1-7.59,4.26,18.48,18.48,0,0,1-7,.48l-.42-6a19,19,0,0,0,5.4-.35,11.25,11.25,0,0,0,5.11-2.61,8.77,8.77,0,0,0,3.13-4.88,5.56,5.56,0,0,0-1.39-4.9,7.26,7.26,0,0,0-2.38-1.86,5.2,5.2,0,0,0-3-.39,10.94,10.94,0,0,0-3.79,1.38,29.54,29.54,0,0,0-4.8,3.47l-3.59-4.18a22.94,22.94,0,0,0,3.59-3.73,10.2,10.2,0,0,0,1.65-3.23,5.19,5.19,0,0,0,0-2.82,6.46,6.46,0,0,0-1.32-2.4,5.26,5.26,0,0,0-3.92-2,6.48,6.48,0,0,0-4.4,1.83,9.17,9.17,0,0,0-2.71,3.75,18.47,18.47,0,0,0-1.11,4.71l-6-1a24.66,24.66,0,0,1,1.89-6.63,15.57,15.57,0,0,1,4.22-5.52,19.55,19.55,0,0,1,4.66-3,12.06,12.06,0,0,1,4.63-1.16,9.75,9.75,0,0,1,4.35.85,10.77,10.77,0,0,1,3.81,2.92,9,9,0,0,1,2.37,5.75,12.46,12.46,0,0,1-1.67,6.27l.17.2a12.71,12.71,0,0,1,7.06-1.29,9.44,9.44,0,0,1,6.27,3.53,10.9,10.9,0,0,1,2.46,4.63,11.19,11.19,0,0,1,.07,4.92,14.76,14.76,0,0,1-2,4.83A19.12,19.12,0,0,1,364.88,309.83Z"/><path d="M391.59,288.34a19.06,19.06,0,0,1-7.86,3.75,18.72,18.72,0,0,1-7,0l0-6.05a19.29,19.29,0,0,0,5.42,0,11.28,11.28,0,0,0,5.28-2.27,8.74,8.74,0,0,0,3.44-4.66,5.57,5.57,0,0,0-1.07-5,7.18,7.18,0,0,0-2.24-2,5.31,5.31,0,0,0-2.94-.59,11.27,11.27,0,0,0-3.87,1.13,29.62,29.62,0,0,0-5,3.15l-3.3-4.42a22.15,22.15,0,0,0,3.83-3.48,9.94,9.94,0,0,0,1.86-3.11,5.15,5.15,0,0,0,.19-2.81,6.44,6.44,0,0,0-1.16-2.49,5.24,5.24,0,0,0-3.77-2.3,6.49,6.49,0,0,0-4.52,1.53,9.28,9.28,0,0,0-3,3.56,19.07,19.07,0,0,0-1.42,4.62l-5.89-1.41a24.66,24.66,0,0,1,2.32-6.49,15.71,15.71,0,0,1,4.58-5.23,19.86,19.86,0,0,1,4.84-2.72,12.4,12.4,0,0,1,4.7-.85,9.8,9.8,0,0,1,4.29,1.14,10.64,10.64,0,0,1,3.6,3.17,9,9,0,0,1,2,5.89,12.55,12.55,0,0,1-2.08,6.15l.16.21a12.71,12.71,0,0,1,7.13-.82,9.45,9.45,0,0,1,6,3.94,10.76,10.76,0,0,1,1.88,9.7,14.59,14.59,0,0,1-2.31,4.68A19.29,19.29,0,0,1,391.59,288.34Z"/><path d="M420.6,268.08a18,18,0,0,1-5.23,2.37,13.76,13.76,0,0,1-5,.45,11.29,11.29,0,0,1-4.45-1.42,10,10,0,0,1-3.44-3.33,9.79,9.79,0,0,1-1.43-3.34,11.18,11.18,0,0,1-.18-3.36,14.45,14.45,0,0,1,.72-3.29,19.11,19.11,0,0,1,1.4-3.09l-.14-.22a16.88,16.88,0,0,1-5.66-1.19,9.6,9.6,0,0,1-4.51-3.88,10.77,10.77,0,0,1-1.71-4.37,10.28,10.28,0,0,1,.32-4.35A11.8,11.8,0,0,1,393.4,235a15.76,15.76,0,0,1,3.79-3.39,14.92,14.92,0,0,1,4.71-2.08,11.49,11.49,0,0,1,4.5-.18,9.79,9.79,0,0,1,4,1.64,11.8,11.8,0,0,1,3.23,3.42,8.85,8.85,0,0,1,1.22,2.77,12.56,12.56,0,0,1,.35,2.9,13.68,13.68,0,0,1-.3,2.86,17.23,17.23,0,0,1-.73,2.55l.14.22a20.21,20.21,0,0,1,3.3,0,12.39,12.39,0,0,1,3.19.71,11.27,11.27,0,0,1,2.93,1.62,10.76,10.76,0,0,1,2.53,2.82,10.06,10.06,0,0,1,1.6,4.33,11,11,0,0,1-.44,4.58,13,13,0,0,1-2.44,4.44A18.59,18.59,0,0,1,420.6,268.08Zm-10.94-21.94a13.35,13.35,0,0,0,.28-4.33,8.22,8.22,0,0,0-1.29-3.62,6.61,6.61,0,0,0-3.83-3,5.82,5.82,0,0,0-4.81,1,5.89,5.89,0,0,0-2.62,3.45,5.42,5.42,0,0,0,.93,4.45,5.7,5.7,0,0,0,2.05,2,6.84,6.84,0,0,0,2.64.75,15.83,15.83,0,0,0,3.13-.07A30.52,30.52,0,0,0,409.66,246.14Zm8.12,17.35a7.39,7.39,0,0,0,3.27-4.07,5.73,5.73,0,0,0-.88-4.91,5.29,5.29,0,0,0-2.25-2,8,8,0,0,0-3-.65,16.72,16.72,0,0,0-3.62.27c-1.31.22-2.71.48-4.2.76a13.19,13.19,0,0,0-.87,4.64,7.89,7.89,0,0,0,1.32,4.38,6.23,6.23,0,0,0,4.61,3A8.22,8.22,0,0,0,417.78,263.49Z"/><path d="M449,251a19,19,0,0,1-8.29,2.66,18.73,18.73,0,0,1-7-.92l.79-6a19.24,19.24,0,0,0,5.37.74,11.4,11.4,0,0,0,5.53-1.54,8.75,8.75,0,0,0,4-4.17,5.58,5.58,0,0,0-.39-5.08,7.13,7.13,0,0,0-2-2.29,5.19,5.19,0,0,0-2.83-1,11,11,0,0,0-4,.6,30.07,30.07,0,0,0-5.4,2.45l-2.68-4.82a22.6,22.6,0,0,0,4.26-2.94,9.9,9.9,0,0,0,2.26-2.83,5.22,5.22,0,0,0,.56-2.76,6.46,6.46,0,0,0-.82-2.62,5.23,5.23,0,0,0-3.43-2.79,6.57,6.57,0,0,0-4.68.91,9.38,9.38,0,0,0-3.4,3.14,19.09,19.09,0,0,0-2,4.39l-5.65-2.18a24.84,24.84,0,0,1,3.16-6.13,15.8,15.8,0,0,1,5.24-4.57,20.15,20.15,0,0,1,5.17-2.05,12.1,12.1,0,0,1,4.76-.21,9.78,9.78,0,0,1,4.11,1.7,10.84,10.84,0,0,1,3.14,3.62,9,9,0,0,1,1.18,6.11,12.56,12.56,0,0,1-2.88,5.81l.12.23a12.76,12.76,0,0,1,7.18.14,9.46,9.46,0,0,1,5.44,4.71,10.93,10.93,0,0,1,1.49,5,11.12,11.12,0,0,1-.91,4.83,14.59,14.59,0,0,1-2.93,4.34A19.1,19.1,0,0,1,449,251Z"/><path d="M467.15,240.16l-1.88-4c1.42-3.76,2.68-7.22,3.79-10.35s2-6,2.6-8.49a30.64,30.64,0,0,0,1-6.72,11,11,0,0,0-.94-5.07,7.56,7.56,0,0,0-3.86-4,6.56,6.56,0,0,0-5.45.44A7.54,7.54,0,0,0,459,205.1a20.63,20.63,0,0,0-2,4.55l-5.59-2a24.22,24.22,0,0,1,3.34-6.84,16.88,16.88,0,0,1,11.29-6.16,11.81,11.81,0,0,1,4.85.58,11.53,11.53,0,0,1,4.12,2.52,14,14,0,0,1,3.11,4.34,14.35,14.35,0,0,1,1.29,5.6,30.86,30.86,0,0,1-.5,6.62,70.77,70.77,0,0,1-1.8,7.5c-.79,2.64-1.64,5.39-2.57,8.25l3.08-1.78c1.1-.64,2.11-1.18,3-1.61l9.26-4.37,2.75,5.82Z"/><path d="M506.22,222.57a95.1,95.1,0,0,1-2.81-9.87,58.57,58.57,0,0,1-1.3-9,50.7,50.7,0,0,1,.22-8.87,71.59,71.59,0,0,1,1.79-9.47l-18.4,7.21-2.33-5.93,26.1-10.24,1.68,4.28a59.85,59.85,0,0,0-2.38,10.21,44.49,44.49,0,0,0-.26,9.13,51.75,51.75,0,0,0,1.6,9.21q1.26,4.74,3.24,10.51Z"/><path d="M541.75,210.52a14.28,14.28,0,0,1-6.61.65,17.19,17.19,0,0,1-5.46-1.78l2.5-5.62a9.18,9.18,0,0,0,3.53,1.26,8.35,8.35,0,0,0,3.8-.27,8.91,8.91,0,0,0,3.3-1.87,7.8,7.8,0,0,0,2.13-3.4,14.9,14.9,0,0,0,.6-5.18,31.62,31.62,0,0,0-1.3-7.24,13.12,13.12,0,0,1-3,4.72,10.44,10.44,0,0,1-4.18,2.67,14.81,14.81,0,0,1-4.93.74,10.1,10.1,0,0,1-4.39-1.13,11,11,0,0,1-3.6-3.09,16.72,16.72,0,0,1-2.57-5.18,14.71,14.71,0,0,1-.71-5.73,13.2,13.2,0,0,1,1.39-5,12.25,12.25,0,0,1,3.15-3.85,13.79,13.79,0,0,1,4.57-2.45,14.23,14.23,0,0,1,5.87-.58,13.05,13.05,0,0,1,5.72,2.07,18.75,18.75,0,0,1,5,5,30.6,30.6,0,0,1,3.9,8.31A35.52,35.52,0,0,1,552.33,194,21.06,21.06,0,0,1,551,201.9a14,14,0,0,1-3.77,5.5A15.3,15.3,0,0,1,541.75,210.52Zm-5-21.69a7.74,7.74,0,0,0,3.32-2.26,10.92,10.92,0,0,0,2.35-4.63q-2.24-5.08-5-6.82a6.57,6.57,0,0,0-5.67-.82,5.74,5.74,0,0,0-3.57,3.27,8.41,8.41,0,0,0,0,6.13c.75,2.38,1.87,4,3.35,4.82A6.37,6.37,0,0,0,536.74,188.83Z"/><path d="M576.24,200.73a18.8,18.8,0,0,1-8.68.33A22.16,22.16,0,0,1,561,198.5l2.23-5.55a22.55,22.55,0,0,0,4.89,2,10.89,10.89,0,0,0,5.67,0,8.19,8.19,0,0,0,5.15-3.42,7.81,7.81,0,0,0-8.53-12,9.29,9.29,0,0,0-3.18,1.35,21.11,21.11,0,0,0-2.76,2.54l-4-1.37-3.69-20.33,21.68-5.3,1.51,6.18-15.3,3.75,1.57,10a14.78,14.78,0,0,1,2.28-1.6,10.66,10.66,0,0,1,2.75-1.05,16.43,16.43,0,0,1,5.13-.44,11.06,11.06,0,0,1,8.33,4.62,14.71,14.71,0,0,1,2.4,5.39,14.56,14.56,0,0,1,.28,6.22,13.65,13.65,0,0,1-2.08,5.18,14.05,14.05,0,0,1-3.9,3.82A16.33,16.33,0,0,1,576.24,200.73Z"/><path d="M610.77,193.45a11.9,11.9,0,0,1-11.18-3.74q-4.73-4.87-6.56-15.35t1-16.47a12.62,12.62,0,0,1,20.44-3.55q4.69,4.71,6.52,15.12t-1,16.67A11.93,11.93,0,0,1,610.77,193.45Zm-1-5.82a5.16,5.16,0,0,0,2.61-1.29,6.49,6.49,0,0,0,1.7-3.07,19.19,19.19,0,0,0,.57-5.1,44.76,44.76,0,0,0-.77-7.46,44.09,44.09,0,0,0-1.8-7.19,17.72,17.72,0,0,0-2.25-4.5,6.06,6.06,0,0,0-2.62-2.18,5.51,5.51,0,0,0-2.88-.26,5.36,5.36,0,0,0-2.61,1.23,5.93,5.93,0,0,0-1.72,2.93,17.58,17.58,0,0,0-.59,5,44.28,44.28,0,0,0,.75,7.36,45.57,45.57,0,0,0,1.81,7.28,18.72,18.72,0,0,0,2.28,4.6,6.42,6.42,0,0,0,2.63,2.31A5.12,5.12,0,0,0,609.75,187.63Z"/><path d="M630.4,189.4l-.47-4.37q3.87-4.65,7-8.55t5.24-7.16a32.28,32.28,0,0,0,3.15-6,11.2,11.2,0,0,0,.77-5.1,7.52,7.52,0,0,0-2.33-5.07,6.61,6.61,0,0,0-5.3-1.38,7.68,7.68,0,0,0-4.26,1.85,20.16,20.16,0,0,0-3.33,3.66l-4.63-3.73a24,24,0,0,1,5.4-5.37A16.93,16.93,0,0,1,644.3,146a11.77,11.77,0,0,1,4.39,2.14,11.63,11.63,0,0,1,3.08,3.73,14,14,0,0,1,1.5,5.12,14.22,14.22,0,0,1-.6,5.71,32.05,32.05,0,0,1-2.65,6.1,67.6,67.6,0,0,1-4.16,6.48q-2.42,3.38-5.13,7l3.5-.67c1.25-.25,2.37-.42,3.37-.53L657.79,180l.68,6.39Z"/><path d="M679,186.12a18.19,18.19,0,0,1-5.71-.62,14,14,0,0,1-4.55-2.18,11.24,11.24,0,0,1-3.1-3.49,9.89,9.89,0,0,1-1.27-4.61,9.76,9.76,0,0,1,.47-3.61,10.86,10.86,0,0,1,1.56-3,13.73,13.73,0,0,1,2.3-2.46,18.48,18.48,0,0,1,2.77-2V164a16.88,16.88,0,0,1-4.26-3.9,9.62,9.62,0,0,1-1.91-5.64,10.7,10.7,0,0,1,.77-4.63,10.07,10.07,0,0,1,2.48-3.58,11.82,11.82,0,0,1,3.91-2.4,15.43,15.43,0,0,1,5-1,15.11,15.11,0,0,1,5.11.61,11.4,11.4,0,0,1,4,2.14,9.78,9.78,0,0,1,2.6,3.45,11.9,11.9,0,0,1,1,4.59,9,9,0,0,1-.38,3,11.7,11.7,0,0,1-1.17,2.68,13.33,13.33,0,0,1-1.71,2.3A16.92,16.92,0,0,1,685,163.4v.26a20.4,20.4,0,0,1,2.83,1.7,12.06,12.06,0,0,1,2.39,2.23,10.87,10.87,0,0,1,2.44,6.61,10.14,10.14,0,0,1-.84,4.53,11,11,0,0,1-2.7,3.73,13.4,13.4,0,0,1-4.37,2.57A18.71,18.71,0,0,1,679,186.12Zm-.08-5.39a7.35,7.35,0,0,0,4.88-1.84,5.67,5.67,0,0,0,1.75-4.67,5.27,5.27,0,0,0-.91-2.89,7.78,7.78,0,0,0-2.22-2.07,16.68,16.68,0,0,0-3.25-1.61c-1.24-.48-2.58-1-4-1.48a12.92,12.92,0,0,0-3.11,3.54,7.87,7.87,0,0,0-1.1,4.45,6.23,6.23,0,0,0,2.43,4.93A8.23,8.23,0,0,0,678.89,180.73Zm1.85-19.06a13.58,13.58,0,0,0,2.45-3.59,8.3,8.3,0,0,0,.73-3.77,6.59,6.59,0,0,0-1.79-4.5,6.53,6.53,0,0,0-8.64,0,5.4,5.4,0,0,0-1.47,4.3,5.56,5.56,0,0,0,.77,2.73,6.86,6.86,0,0,0,1.89,2,15.49,15.49,0,0,0,2.72,1.53A33.79,33.79,0,0,0,680.74,161.67Z"/><path d="M713.24,185.86a17.85,17.85,0,0,1-5.66-1,13.91,13.91,0,0,1-4.4-2.47,11.27,11.27,0,0,1-2.86-3.69,10.63,10.63,0,0,1-.25-8.25,11.1,11.1,0,0,1,1.75-2.88,14.55,14.55,0,0,1,2.46-2.3,19,19,0,0,1,2.9-1.76v-.27a16.62,16.62,0,0,1-4-4.17,9.56,9.56,0,0,1-1.53-5.75,10.64,10.64,0,0,1,1.07-4.57,10.28,10.28,0,0,1,2.71-3.42,11.8,11.8,0,0,1,4.06-2.12,15.37,15.37,0,0,1,5-.66,14.62,14.62,0,0,1,5.07.95,11.18,11.18,0,0,1,3.81,2.39,9.78,9.78,0,0,1,2.37,3.61,12,12,0,0,1,.74,4.65,9.11,9.11,0,0,1-.57,3,11.87,11.87,0,0,1-1.35,2.6,13.32,13.32,0,0,1-1.86,2.18,18.39,18.39,0,0,1-2,1.69v.26a20.81,20.81,0,0,1,2.71,1.88,12.37,12.37,0,0,1,2.24,2.39,11.48,11.48,0,0,1,1.5,3,11.06,11.06,0,0,1,.49,3.76,10.07,10.07,0,0,1-1.13,4.47,11,11,0,0,1-3,3.53,13.28,13.28,0,0,1-4.52,2.29A18.58,18.58,0,0,1,713.24,185.86Zm.27-5.38a7.37,7.37,0,0,0,5-1.51,5.7,5.7,0,0,0,2-4.55,5.31,5.31,0,0,0-.71-2.94,8.19,8.19,0,0,0-2.08-2.22,18,18,0,0,0-3.14-1.82c-1.21-.55-2.51-1.14-3.9-1.74A13,13,0,0,0,707.4,169a8,8,0,0,0-1.4,4.37,6.2,6.2,0,0,0,2.11,5.07A8.13,8.13,0,0,0,713.51,180.48Zm3.11-18.9a13.58,13.58,0,0,0,2.68-3.41,8.25,8.25,0,0,0,1-3.72,6.58,6.58,0,0,0-1.49-4.6,6.49,6.49,0,0,0-8.62-.55,5.39,5.39,0,0,0-1.75,4.19,5.62,5.62,0,0,0,.58,2.77,6.81,6.81,0,0,0,1.76,2.12,16.37,16.37,0,0,0,2.61,1.71A34,34,0,0,0,716.62,161.58Z"/><path d="M750.3,187.34l1-10.72-18.37-1.69.46-5.1,18.85-24.24,9,.82-2.3,25,5.23.48-.54,5.82-5.23-.48-1,10.72Zm-9.39-17.54,10.92,1,.86-9.41c.11-1.22.28-2.66.5-4.31s.42-3.08.62-4.29l-.26,0c-.62,1-1.26,2.06-1.93,3.06s-1.35,2-2.06,3.1Z"/><path d="M769.77,189.48l1-6.09,9.21,1.47,4.32-27.11-7.58-1.21.74-4.66a34.25,34.25,0,0,0,5.57-.55,23.41,23.41,0,0,0,4.5-1.31l5.58.89-5.61,35.15,8.1,1.29-1,6.1Z"/><path d="M812.61,198.1a14.41,14.41,0,0,1-6-2.8,17,17,0,0,1-3.8-4.3l5-3.57a9.31,9.31,0,0,0,2.41,2.87A8.2,8.2,0,0,0,813.6,192a8.66,8.66,0,0,0,3.79.06A7.75,7.75,0,0,0,821,190.2a14.82,14.82,0,0,0,3.14-4.16,31.51,31.51,0,0,0,2.55-6.89,13.29,13.29,0,0,1-5,2.52,10.54,10.54,0,0,1-5,.18A14.5,14.5,0,0,1,812,180a9.88,9.88,0,0,1-3.21-3.19,10.89,10.89,0,0,1-1.54-4.49,16.75,16.75,0,0,1,.41-5.77,14.67,14.67,0,0,1,2.29-5.3,13,13,0,0,1,3.71-3.56,12.19,12.19,0,0,1,4.68-1.73,13.7,13.7,0,0,1,5.17.2,14.2,14.2,0,0,1,5.36,2.48,13.16,13.16,0,0,1,3.88,4.69,18.69,18.69,0,0,1,1.79,6.91,30.59,30.59,0,0,1-.85,9.13,35.25,35.25,0,0,1-3.64,9.88,21.08,21.08,0,0,1-5.1,6.14,14,14,0,0,1-6,2.83A15.21,15.21,0,0,1,812.61,198.1Zm6.67-21.24a7.76,7.76,0,0,0,4-.27,10.74,10.74,0,0,0,4.38-2.8q.66-5.5-.87-8.42a6.53,6.53,0,0,0-4.47-3.58,5.76,5.76,0,0,0-4.74,1,8.44,8.44,0,0,0-3.09,5.29c-.56,2.43-.41,4.39.44,5.86A6.35,6.35,0,0,0,819.28,176.86Z"/><path d="M842.93,205a96.66,96.66,0,0,1,3.88-9.5,57.55,57.55,0,0,1,4.52-7.86A49.57,49.57,0,0,1,857,180.8a72,72,0,0,1,7.25-6.36l-18.93-5.68,1.83-6.1L874,170.72l-1.32,4.4a59.72,59.72,0,0,0-8.17,6.56,43.77,43.77,0,0,0-5.85,7,51.11,51.11,0,0,0-4.42,8.24q-1.93,4.5-3.94,10.27Z"/><path d="M869.82,213.43l2.16-5.78,8.73,3.27,9.63-25.7-7.19-2.7,1.66-4.42a34.92,34.92,0,0,0,5.57.57,23.77,23.77,0,0,0,4.66-.39l5.29,2-12.48,33.32,7.68,2.88-2.16,5.78Z"/><path d="M913.56,232a14.24,14.24,0,0,1-4.82-3.52,12.89,12.89,0,0,1-2.86-5.37,18.49,18.49,0,0,1-.37-7.15,30.85,30.85,0,0,1,2.66-8.82,34.87,34.87,0,0,1,5.57-8.94,21.11,21.11,0,0,1,6.25-4.95,14.14,14.14,0,0,1,6.43-1.55,14.9,14.9,0,0,1,6.17,1.35A14.26,14.26,0,0,1,938,197a17.15,17.15,0,0,1,2.83,5l-5.6,2.51a8.51,8.51,0,0,0-1.73-3.27,8.26,8.26,0,0,0-3-2.34,8.94,8.94,0,0,0-3.71-.82,7.73,7.73,0,0,0-3.85,1.11,14.72,14.72,0,0,0-3.91,3.45,31.13,31.13,0,0,0-3.87,6.25,13.75,13.75,0,0,1,5.4-1.52,10.12,10.12,0,0,1,4.88.77,14.76,14.76,0,0,1,4.19,2.77,10,10,0,0,1,2.54,3.78,11,11,0,0,1,.61,4.71,16.77,16.77,0,0,1-1.55,5.57,14.57,14.57,0,0,1-3.31,4.73,13.08,13.08,0,0,1-4.34,2.76,12.82,12.82,0,0,1-4.94.79A13.44,13.44,0,0,1,913.56,232Zm2.27-5.31a5.69,5.69,0,0,0,4.87,0,8.63,8.63,0,0,0,4.09-4.64q1.55-3.41.75-5.78a6.32,6.32,0,0,0-3.67-3.68A7.73,7.73,0,0,0,918,212a11.34,11.34,0,0,0-4.94,1.83c-1.17,3.55-1.48,6.37-.91,8.45A6.43,6.43,0,0,0,915.83,226.66Z"/><path d="M940.89,245.43a14.42,14.42,0,0,1-5.08-4.29,16.89,16.89,0,0,1-2.52-5.16l5.76-2.12a9.27,9.27,0,0,0,1.56,3.41,8.42,8.42,0,0,0,2.85,2.54,9,9,0,0,0,3.64,1.06A7.82,7.82,0,0,0,951,240a14.7,14.7,0,0,0,4.13-3.18,31.43,31.43,0,0,0,4.28-6,13.17,13.17,0,0,1-5.51,1.1,10.38,10.38,0,0,1-4.83-1.14,14.6,14.6,0,0,1-4-3,10.22,10.22,0,0,1-2.25-3.93,10.79,10.79,0,0,1-.29-4.74,16.71,16.71,0,0,1,1.92-5.45,14.78,14.78,0,0,1,3.61-4.51,13.13,13.13,0,0,1,4.53-2.45,12.16,12.16,0,0,1,5-.43,13.67,13.67,0,0,1,4.93,1.57,14.27,14.27,0,0,1,4.52,3.8,13.13,13.13,0,0,1,2.49,5.55,18.54,18.54,0,0,1-.1,7.14,30.31,30.31,0,0,1-3.23,8.59,35.63,35.63,0,0,1-6.13,8.56,21.16,21.16,0,0,1-6.55,4.57,14.07,14.07,0,0,1-6.57,1.13A15.24,15.24,0,0,1,940.89,245.43ZM953,226.71a7.71,7.71,0,0,0,3.92.81,10.88,10.88,0,0,0,5-1.55q2.08-5.13,1.39-8.34a6.57,6.57,0,0,0-3.36-4.64,5.75,5.75,0,0,0-4.84-.29,8.45,8.45,0,0,0-4.39,4.28q-1.77,3.3-1.12,5.77A6.31,6.31,0,0,0,953,226.71Z"/><path d="M971.9,263.31a19.2,19.2,0,0,1-6.33-6,18.84,18.84,0,0,1-2.55-6.56l5.64-2.2a19.13,19.13,0,0,0,2,5.05,11.32,11.32,0,0,0,4,4.11,8.65,8.65,0,0,0,5.59,1.52,5.58,5.58,0,0,0,4.27-2.78,7.16,7.16,0,0,0,1.07-2.82,5.29,5.29,0,0,0-.51-3,11.3,11.3,0,0,0-2.45-3.2,29.8,29.8,0,0,0-4.75-3.55l2.93-4.68a22.12,22.12,0,0,0,4.63,2.32,9.69,9.69,0,0,0,3.57.61,5.06,5.06,0,0,0,2.69-.83,6.54,6.54,0,0,0,1.9-2,5.26,5.26,0,0,0,.79-4.35,6.49,6.49,0,0,0-3.05-3.66,9.36,9.36,0,0,0-4.39-1.47,18.92,18.92,0,0,0-4.83.35l-.8-6a24.59,24.59,0,0,1,6.89-.18,15.69,15.69,0,0,1,6.52,2.39A19.67,19.67,0,0,1,999,230a12.3,12.3,0,0,1,2.49,4.07,9.74,9.74,0,0,1,.48,4.42,10.75,10.75,0,0,1-1.65,4.5,9.06,9.06,0,0,1-4.78,4,12.66,12.66,0,0,1-6.49.27l-.14.22a12.77,12.77,0,0,1,3.34,6.36,9.49,9.49,0,0,1-1.51,7,10.94,10.94,0,0,1-3.69,3.72,11.06,11.06,0,0,1-4.68,1.53,14.84,14.84,0,0,1-5.2-.47A19.3,19.3,0,0,1,971.9,263.31Z"/><path d="M999.12,281.52a14.36,14.36,0,0,1-4.45-4.93,16.74,16.74,0,0,1-1.81-5.45l6-1.33a9.29,9.29,0,0,0,1.09,3.59,8.5,8.5,0,0,0,2.48,2.89,9,9,0,0,0,3.47,1.54,7.79,7.79,0,0,0,4-.31,14.7,14.7,0,0,0,4.53-2.61,31,31,0,0,0,5-5.34,13.38,13.38,0,0,1-5.61.36,10.57,10.57,0,0,1-4.63-1.78,14.78,14.78,0,0,1-3.53-3.53,10.13,10.13,0,0,1-1.7-4.19,10.88,10.88,0,0,1,.35-4.73,16.67,16.67,0,0,1,2.63-5.15,14.66,14.66,0,0,1,4.18-4,13,13,0,0,1,4.81-1.83,12.17,12.17,0,0,1,5,.24,13.75,13.75,0,0,1,4.68,2.21,14.07,14.07,0,0,1,4,4.38,13,13,0,0,1,1.74,5.83,18.76,18.76,0,0,1-1.06,7.06,30.57,30.57,0,0,1-4.35,8.08,35.61,35.61,0,0,1-7.22,7.66,21.19,21.19,0,0,1-7.1,3.65,14,14,0,0,1-6.66.24A15.25,15.25,0,0,1,999.12,281.52Zm14.46-16.94a7.77,7.77,0,0,0,3.78,1.33,11,11,0,0,0,5.13-.87c1.84-3.21,2.67-5.9,2.49-8.09a6.56,6.56,0,0,0-2.71-5,5.74,5.74,0,0,0-4.76-.93,8.43,8.43,0,0,0-4.91,3.65q-2.21,3-1.89,5.57A6.36,6.36,0,0,0,1013.58,264.58Z"/><path d="M1026.31,302.41a14.4,14.4,0,0,1-4.12-5.22,17.14,17.14,0,0,1-1.44-5.55l6.07-.93a9.24,9.24,0,0,0,.85,3.65,8.3,8.3,0,0,0,2.28,3.05,8.92,8.92,0,0,0,3.36,1.77,7.81,7.81,0,0,0,4-.05,14.78,14.78,0,0,0,4.68-2.29,31.12,31.12,0,0,0,5.39-5,13.14,13.14,0,0,1-5.62,0,10.49,10.49,0,0,1-4.5-2.08A14.72,14.72,0,0,1,1034,286a10.13,10.13,0,0,1-1.42-4.3,10.88,10.88,0,0,1,.66-4.7,16.63,16.63,0,0,1,3-5,15,15,0,0,1,4.44-3.7,13.25,13.25,0,0,1,4.92-1.5,12.32,12.32,0,0,1,5,.57,13.76,13.76,0,0,1,4.52,2.52,14.24,14.24,0,0,1,3.67,4.63,13.22,13.22,0,0,1,1.34,5.94,18.46,18.46,0,0,1-1.53,7,30,30,0,0,1-4.88,7.77,35.63,35.63,0,0,1-7.7,7.17,21.4,21.4,0,0,1-7.33,3.17,14.09,14.09,0,0,1-6.67-.2A15.3,15.3,0,0,1,1026.31,302.41Zm15.55-15.93a7.8,7.8,0,0,0,3.69,1.57,10.9,10.9,0,0,0,5.17-.53q3.08-4.62,3-7.9a6.53,6.53,0,0,0-2.37-5.21,5.75,5.75,0,0,0-4.69-1.25,8.42,8.42,0,0,0-5.14,3.32q-2.4,2.88-2.26,5.43A6.42,6.42,0,0,0,1041.86,286.48Z"/></svg>